<?xml version="1.0" standalone="no"?>
<!DOCTYPE svg PUBLIC "-//W3C//DTD SVG 20010904//EN"
 "http://www.w3.org/TR/2001/REC-SVG-20010904/DTD/svg10.dtd">
<svg version="1.0" xmlns="http://www.w3.org/2000/svg"
 width="640.000000pt" height="640.000000pt" viewBox="0 0 640.000000 640.000000"
 preserveAspectRatio="xMidYMid meet">

<g transform="translate(0.000000,640.000000) scale(0.100000,-0.100000)"
fill="#000000" stroke="none">
<path d="M3692 6328 c-25 -15 -30 -24 -22 -32 8 -8 15 -6 25 8 8 10 19 15 26
10 8 -4 10 -3 5 4 -5 8 0 11 15 9 12 -1 24 4 26 11 7 20 -38 14 -75 -10z"/>
<path d="M3900 6292 c-8 -3 -27 -13 -41 -23 -14 -10 -38 -20 -54 -23 -15 -3
-35 -12 -44 -21 -40 -39 -96 -75 -139 -91 -26 -9 -74 -26 -107 -39 -86 -32
-116 -38 -110 -22 6 15 40 30 118 51 31 9 57 20 57 25 0 8 -90 -12 -110 -24
-6 -4 -25 -8 -42 -11 -18 -2 -64 -13 -102 -25 -39 -12 -83 -23 -98 -23 -16 -1
-28 -7 -28 -13 0 -18 -27 -16 -38 3 -8 14 -10 14 -24 0 -9 -8 -18 -12 -22 -9
-3 4 -12 -2 -20 -12 -8 -12 -15 -14 -20 -7 -4 7 -17 8 -38 1 -37 -10 -46 -5
-28 16 19 23 2 18 -75 -20 -38 -19 -75 -35 -82 -35 -7 0 -23 -14 -35 -31 -13
-17 -39 -42 -58 -55 -44 -31 -35 -30 36 1 32 14 62 24 68 21 6 -2 2 -7 -9 -11
-11 -3 -29 -11 -40 -17 -92 -51 -103 -55 -98 -41 5 13 3 13 -17 3 -16 -9 -19
-14 -10 -20 7 -4 -12 -15 -52 -28 -149 -48 -173 -59 -170 -75 3 -20 -33 -41
-59 -34 -10 3 -22 1 -25 -4 -3 -5 -9 -7 -13 -4 -5 2 -16 -2 -27 -9 -11 -8 -31
-12 -49 -9 -18 3 -48 -2 -70 -12 -22 -9 -62 -23 -88 -32 -35 -10 -47 -18 -43
-29 4 -11 -6 -14 -47 -14 -37 0 -48 3 -37 10 8 5 24 10 34 10 15 0 17 3 9 11
-7 7 -20 8 -30 4 -10 -4 -35 -9 -56 -10 -21 -2 -47 -11 -58 -21 -18 -16 -19
-16 -27 6 -13 34 -127 61 -277 65 -80 3 -161 13 -242 31 l-122 26 -30 -22
c-17 -12 -31 -25 -31 -29 0 -4 18 -23 41 -42 22 -19 46 -39 52 -45 7 -6 53
-34 102 -64 50 -29 111 -66 138 -82 26 -15 58 -28 72 -28 14 0 38 -13 55 -30
30 -29 31 -32 19 -68 -13 -41 -39 -81 -52 -82 -16 0 -160 -130 -208 -186 -9
-11 -28 -30 -44 -43 -21 -18 -29 -20 -36 -10 -4 7 -11 10 -16 6 -4 -5 -2 -12
5 -16 9 -5 -3 -24 -38 -62 -27 -30 -50 -57 -50 -62 0 -4 -11 -12 -24 -17 -14
-5 -33 -21 -42 -35 -9 -14 -30 -40 -46 -57 -15 -16 -28 -34 -28 -39 0 -5 -7
-9 -15 -9 -8 0 -15 4 -15 8 0 5 -33 -24 -74 -65 -41 -40 -79 -73 -84 -73 -6 0
-12 -7 -15 -15 -4 -8 -22 -21 -42 -29 -36 -15 -48 -46 -18 -46 15 0 14 -2 -2
-14 -11 -8 -23 -12 -27 -10 -4 2 -36 -18 -72 -45 -36 -26 -91 -59 -121 -71
-52 -21 -56 -25 -50 -50 5 -23 2 -29 -22 -38 -15 -6 -49 -14 -75 -18 -52 -7
-66 -24 -20 -24 15 0 54 7 87 14 33 8 100 17 150 20 91 7 196 35 308 84 31 14
60 23 62 20 3 -3 -11 -34 -31 -69 -82 -142 -124 -229 -142 -295 -10 -38 -17
-75 -15 -82 3 -7 -1 -19 -7 -27 -17 -20 -23 -118 -8 -113 6 2 16 12 22 22 9
13 7 19 -6 27 -24 13 -23 29 2 29 14 0 22 11 30 43 6 23 17 57 25 75 8 18 15
37 15 42 0 10 45 116 60 140 5 8 19 33 30 55 12 22 42 74 67 115 38 66 50 78
88 91 49 18 72 11 60 -17 -4 -11 -9 -23 -9 -29 -2 -16 -37 -65 -48 -65 -13 0
-42 -30 -35 -37 3 -3 -7 -19 -24 -37 -16 -17 -32 -42 -36 -56 -3 -14 -12 -36
-19 -50 -24 -46 -52 -115 -65 -157 -6 -24 -20 -50 -31 -59 -10 -10 -18 -27
-18 -38 0 -12 -7 -32 -16 -44 -8 -12 -13 -26 -10 -31 3 -5 -3 -28 -13 -52 -29
-67 -66 -268 -56 -304 7 -26 9 -27 14 -10 3 11 12 21 19 22 9 2 12 -18 13 -75
6 -326 7 -345 20 -353 11 -6 14 -41 13 -151 -1 -149 -16 -242 -54 -338 -11
-28 -20 -57 -20 -66 0 -8 -11 -32 -24 -53 -14 -21 -22 -42 -19 -45 4 -3 2 -6
-4 -6 -13 0 -53 -65 -53 -87 0 -9 -6 -13 -14 -10 -13 5 -32 -20 -23 -29 2 -2
40 13 83 35 69 33 99 58 224 182 80 79 156 161 170 181 14 21 28 38 32 38 11
0 21 -167 14 -232 -4 -33 -18 -105 -32 -160 -14 -55 -23 -102 -21 -104 16 -16
55 94 49 135 -3 19 0 36 7 40 20 13 32 123 26 256 -3 81 -2 121 4 105 16 -47
43 -254 43 -330 -1 -72 0 -74 14 -47 20 36 27 34 19 -5 -4 -19 -21 -46 -40
-63 -19 -16 -37 -42 -40 -57 -4 -15 -13 -32 -21 -39 -8 -6 -14 -17 -14 -24 0
-15 -32 -45 -49 -45 -8 0 -10 8 -6 23 5 18 1 16 -24 -12 -17 -19 -37 -49 -46
-68 -9 -18 -20 -33 -25 -33 -6 0 -10 -5 -10 -11 0 -13 41 -2 55 15 6 7 31 27
58 45 26 18 72 56 101 84 79 75 84 79 109 72 21 -6 21 -5 3 9 -17 14 -17 16
-2 31 15 15 17 14 27 -8 9 -21 7 -28 -16 -53 -15 -16 -35 -28 -44 -26 -11 2
-21 -9 -29 -31 -16 -45 -15 -52 5 -36 15 13 16 8 9 -63 -6 -68 -5 -77 9 -72 9
4 15 1 15 -7 0 -8 3 -24 6 -36 4 -14 2 -23 -5 -23 -5 0 -8 6 -5 14 4 10 -1 12
-19 9 -19 -4 -30 3 -51 30 -31 41 -31 42 -6 89 12 22 16 40 10 43 -21 13 -66
-23 -107 -84 -64 -96 -76 -112 -99 -135 -11 -12 -23 -29 -27 -38 -10 -26 -22
-22 -57 20 l-32 37 7 -35 c19 -94 156 -269 246 -316 36 -18 49 -12 25 11 -26
26 -18 31 9 5 24 -23 35 -47 15 -35 -5 3 -10 2 -10 -4 0 -14 27 -27 72 -35 20
-4 60 -22 89 -41 28 -19 59 -35 68 -35 9 0 21 -4 27 -9 11 -11 78 -36 149 -56
102 -29 154 -65 94 -65 -11 0 -18 3 -16 8 3 4 -5 7 -16 8 -12 0 -30 4 -39 8
-29 13 -22 -20 10 -42 35 -25 152 -78 191 -87 32 -7 43 -25 16 -25 -23 0 -18
-14 15 -38 35 -27 43 -27 66 -5 16 17 17 17 11 1 -4 -12 0 -19 16 -23 12 -3
47 -15 78 -26 51 -19 56 -23 57 -52 0 -17 8 -37 18 -44 9 -6 36 -31 61 -53 28
-27 61 -47 91 -55 70 -19 142 -48 142 -57 0 -12 -11 -10 -86 12 -38 11 -85 25
-104 30 -92 25 -87 22 -65 30 15 5 8 11 -35 25 -30 10 -72 26 -92 36 -21 11
-54 19 -75 19 l-38 -1 35 -17 c19 -9 36 -23 36 -29 3 -42 4 -44 24 -38 13 4
22 1 26 -9 3 -9 14 -16 24 -16 10 0 25 -7 34 -15 11 -11 132 -45 160 -45 1 0
19 -15 39 -33 28 -24 34 -36 26 -44 -14 -14 -2 -36 15 -30 7 3 13 -1 13 -9 0
-10 -9 -14 -26 -12 -18 2 -25 8 -23 20 3 20 -14 24 -21 6 -4 -9 -8 -9 -14 -3
-12 15 -54 37 -60 32 -2 -3 3 -19 11 -36 9 -16 16 -39 16 -49 0 -15 10 -21 42
-26 l42 -7 -28 -18 c-22 -15 -24 -20 -12 -24 21 -8 20 -35 -1 -39 -10 -3 9
-10 42 -17 33 -7 80 -18 105 -26 104 -32 235 -58 355 -71 32 -3 55 -8 127 -25
61 -14 295 -5 367 15 37 10 59 12 67 5 20 -16 113 -16 124 1 5 8 5 17 1 20 -5
3 -3 10 4 17 11 10 14 5 19 -25 5 -35 10 -143 7 -169 0 -7 -8 -13 -16 -13 -8
0 -15 -5 -15 -11 0 -6 -42 -51 -92 -100 l-93 -88 128 -1 127 0 1 38 c0 20 2
116 5 212 3 163 -3 250 -21 293 -15 35 24 17 61 -29 34 -41 77 -68 159 -100
11 -4 45 -6 76 -5 33 2 60 -2 63 -8 4 -6 23 -11 42 -11 22 0 37 -6 40 -15 4
-8 12 -15 20 -15 16 0 19 -26 4 -35 -6 -3 -5 -15 2 -30 12 -26 28 -33 28 -12
0 19 69 15 84 -6 7 -9 17 -17 22 -17 4 0 3 5 -4 12 -19 19 -14 28 13 28 14 0
25 5 25 10 0 6 8 10 18 9 10 0 12 -3 5 -6 -31 -12 -9 -22 37 -16 37 4 50 3 50
-7 0 -7 3 -11 6 -8 3 4 1 15 -5 26 -8 16 -7 21 4 26 9 3 19 16 24 29 7 17 20
27 43 31 26 5 37 15 52 46 12 24 25 39 32 36 8 -3 11 1 7 10 -3 8 1 14 9 14
17 0 48 31 48 48 0 7 9 21 21 33 13 13 18 27 14 40 -5 15 -2 19 16 19 12 0 19
3 16 7 -4 3 0 15 10 25 9 10 12 18 8 18 -5 0 1 10 13 23 15 16 22 37 24 71 1
48 22 101 50 129 13 14 17 13 29 -2 13 -17 51 -86 105 -194 13 -26 28 -47 34
-47 5 0 7 -6 4 -14 -3 -7 2 -16 10 -19 9 -4 16 -13 16 -20 0 -19 25 -39 69
-54 49 -17 52 -17 99 14 44 30 201 213 234 272 11 20 36 53 56 74 l37 38 10
-47 11 -46 114 124 c111 120 278 328 264 328 -4 0 -22 -9 -40 -21 -19 -11 -40
-19 -47 -16 -6 2 -28 -8 -47 -23 -19 -15 -46 -31 -60 -35 -35 -11 -69 -53 -82
-103 -18 -63 -28 -51 -21 26 4 59 2 70 -16 90 -49 51 -66 11 -70 -163 -1 -70
-1 -70 -54 -127 -28 -31 -71 -82 -95 -115 -104 -142 -168 -217 -195 -226 -24
-8 -37 -3 -92 33 -36 23 -65 48 -65 56 0 16 31 34 58 34 25 0 39 -30 14 -30
-16 -1 -16 -1 1 -11 11 -7 23 -7 35 0 9 6 12 11 7 11 -12 0 -14 44 -3 55 4 4
4 14 1 23 -3 10 2 7 12 -6 9 -13 15 -26 11 -29 -9 -9 24 -63 39 -63 7 0 22 11
33 25 11 13 22 21 26 18 3 -3 6 -1 6 6 0 7 16 31 36 54 38 44 56 104 28 93
-12 -4 -12 -2 -4 14 8 16 7 24 -5 36 -8 8 -15 22 -15 30 0 8 -5 14 -11 14 -6
0 -9 6 -6 14 7 19 -12 36 -41 36 -13 0 -21 4 -18 9 10 15 -23 21 -37 7 -17
-17 -78 -49 -83 -43 -2 2 5 21 16 43 10 21 19 33 20 27 0 -19 40 -16 40 3 0
10 -6 14 -15 10 -8 -3 -15 -1 -15 4 0 6 7 10 15 10 8 0 15 7 15 16 0 14 -3 14
-15 4 -8 -7 -15 -9 -15 -4 -1 5 -12 -4 -25 -21 -19 -23 -27 -27 -37 -17 -9 9
-8 12 5 12 9 0 17 4 17 9 0 16 103 111 121 111 10 0 22 6 26 13 4 8 23 22 41
32 17 11 32 23 32 26 0 11 30 39 41 39 5 0 9 -7 9 -15 0 -13 2 -14 14 -3 8 7
10 15 5 16 -18 7 -9 49 16 72 l25 23 -21 18 c-12 10 -30 21 -40 24 -21 7 -25
30 -9 40 8 5 8 11 0 20 -9 10 -7 20 6 40 9 14 14 28 11 31 -8 8 36 51 58 56
14 2 19 10 17 26 -2 15 1 20 10 17 7 -3 24 4 38 15 21 17 23 21 10 31 -13 9
-13 10 0 6 19 -5 52 27 65 63 13 37 83 120 101 120 8 0 14 5 14 10 0 7 -6 7
-19 1 -10 -6 -21 -8 -24 -5 -7 7 35 70 80 117 25 27 37 49 39 75 2 20 6 48 9
60 4 17 2 21 -6 16 -7 -4 -10 -2 -7 7 3 8 9 14 14 14 22 0 99 99 89 115 -3 5
-1 10 4 10 6 0 11 6 11 14 0 14 27 30 46 27 6 0 18 6 25 16 12 15 12 16 -4 10
-16 -6 -16 -4 -1 31 9 20 19 47 21 60 3 12 15 30 28 40 12 9 20 23 17 31 -3 8
0 11 7 7 14 -9 14 14 2 47 -7 18 -6 30 5 43 13 18 15 18 25 1 5 -9 33 -39 60
-65 28 -27 56 -59 62 -72 16 -30 32 -23 32 15 0 27 4 31 39 40 33 8 40 6 52
-10 12 -16 14 -16 14 -2 0 9 -8 20 -17 26 -10 5 -14 13 -10 17 12 12 -34 54
-60 54 -17 0 -23 -6 -23 -22 0 -13 -9 -33 -18 -46 l-18 -24 -29 44 c-18 27
-30 59 -31 86 -2 24 -7 49 -12 55 -13 18 -30 94 -36 162 -3 38 1 85 11 128 13
55 14 73 5 88 -9 14 -9 18 -1 17 6 -2 14 3 16 10 3 9 -2 12 -13 10 -17 -3 -19
3 -15 47 1 28 6 54 9 59 3 5 6 28 8 50 3 61 6 66 13 21 4 -22 3 -48 -1 -57 -4
-9 -8 -36 -7 -60 1 -41 2 -39 20 32 26 100 37 215 30 301 -6 66 -1 93 14 69 7
-12 25 -13 25 -2 0 4 -10 12 -22 17 -14 6 -24 21 -26 38 -4 32 6 34 39 8 13
-10 34 -21 47 -25 20 -7 26 -22 25 -63 -1 -23 15 -13 21 13 5 18 10 23 19 16
7 -5 27 -13 45 -17 18 -4 32 -13 32 -21 0 -8 7 -14 16 -14 12 0 15 6 10 25 -8
33 15 43 50 20 14 -9 28 -15 30 -12 2 2 1 25 -2 51 -6 39 -13 52 -46 77 -36
29 -75 85 -70 102 4 13 -27 77 -37 77 -15 0 -26 -23 -13 -28 7 -2 12 -9 12
-15 0 -21 -59 54 -65 84 -4 16 -10 29 -14 29 -5 0 -24 13 -42 30 -37 33 -45
35 -54 19 -8 -12 -40 14 -57 44 -8 16 -7 18 9 13 10 -2 36 -7 58 -10 36 -6 38
-5 13 5 -52 20 -30 30 52 24 51 -3 80 -2 80 5 0 5 11 10 25 10 31 0 39 17 26
52 -6 17 -39 41 -103 77 -52 29 -114 70 -139 93 -24 22 -76 63 -116 90 -82 57
-148 124 -168 171 -7 18 -23 41 -35 52 -12 11 -38 44 -58 73 -46 70 -128 152
-151 152 -10 0 -21 6 -24 14 -5 11 8 18 49 26 29 6 54 14 54 17 0 3 -12 2 -27
-1 -19 -4 -23 -3 -13 3 8 4 49 16 90 26 74 17 204 64 197 71 -1 2 -33 -6 -71
-17 -68 -20 -115 -21 -63 0 39 15 33 19 -20 13 -102 -11 -305 6 -327 28 -5 5
-22 10 -37 10 -15 0 -31 5 -34 10 -8 13 16 13 52 -1 30 -11 102 -3 87 10 -5 4
-45 13 -89 20 -103 15 -210 49 -310 100 -44 22 -86 41 -92 41 -7 0 -13 4 -13
9 0 9 31 3 99 -18 19 -6 38 -8 42 -5 5 2 16 0 26 -5 10 -5 37 -15 61 -22 23
-7 42 -18 42 -25 0 -8 21 -15 58 -19 31 -3 91 -12 132 -20 41 -8 109 -17 150
-20 41 -4 99 -13 128 -22 29 -8 59 -12 66 -10 8 3 30 2 50 -3 20 -4 36 -4 36
1 0 11 -82 34 -215 60 -76 14 -186 39 -221 50 -17 5 -41 9 -55 9 -13 0 -67 12
-119 26 -52 15 -103 27 -112 27 -9 1 -15 4 -13 7 2 3 -15 11 -38 17 -23 7 -55
16 -71 22 -24 10 -26 14 -15 27 7 9 44 36 81 61 68 44 258 222 258 241 0 5 -8
13 -17 16 -12 5 -35 -10 -77 -52 -119 -113 -158 -140 -324 -221 -32 -16 -48
-19 -62 -11 -57 31 -69 -14 -12 -47 54 -32 11 -30 -62 2 -31 14 -64 25 -72 25
-41 0 2 28 92 61 142 51 201 82 270 142 34 28 83 68 108 87 74 56 78 60 65 76
-6 7 -19 16 -29 19 -10 3 -35 21 -56 40 l-38 35 -81 -7 c-44 -5 -179 -8 -300
-7 -172 0 -232 4 -275 17 -30 9 -100 21 -155 27 -55 7 -140 20 -188 31 -49 10
-105 19 -125 19 -31 0 -86 19 -57 20 19 0 63 85 96 185 19 55 36 102 39 105
13 11 32 69 25 79 -3 6 -14 11 -23 11 -13 0 -25 -23 -46 -87 -50 -155 -56
-168 -101 -231 -40 -55 -43 -63 -28 -70 13 -5 7 -8 -21 -12 -22 -3 -41 -10
-43 -16 -2 -7 7 -10 24 -8 24 4 25 3 8 -5 -20 -10 -11 -11 107 -17 20 0 67 -8
105 -17 37 -9 135 -24 218 -33 82 -8 152 -19 155 -24 3 -4 16 -11 30 -15 34
-11 385 -7 524 5 154 14 156 14 156 -10 0 -23 -40 -43 -65 -34 -9 4 -15 1 -15
-7 0 -11 -2 -11 -9 0 -9 15 -84 16 -331 6 -52 -3 -159 -2 -238 2 -117 5 -146
9 -163 24 -19 17 -62 29 -154 44 -26 4 -35 3 -27 -3 8 -5 14 -13 15 -18 1 -5
10 -8 20 -7 9 2 17 -2 17 -7 0 -13 -37 -13 -45 -1 -3 6 -27 13 -53 16 -26 3
-87 13 -136 21 -55 10 -131 14 -199 12 -75 -2 -111 1 -114 8 -2 6 4 14 14 16
10 3 25 18 33 34 8 16 38 54 66 84 84 89 134 153 134 172 0 10 0 21 0 26 0 4
23 30 51 58 40 40 48 54 42 71 -5 12 -14 18 -23 15z m-574 -233 c3 -6 17 -8
31 -4 16 4 22 2 18 -5 -8 -12 -65 -13 -65 -1 0 5 -8 12 -17 14 -14 4 -13 5 4
6 12 0 25 -4 29 -10z m-416 -113 c0 -2 -7 -7 -16 -10 -8 -3 -12 -2 -9 4 6 10
25 14 25 6z m493 -183 c-7 -2 -21 -2 -30 0 -10 3 -4 5 12 5 17 0 24 -2 18 -5z
m-856 -9 c-3 -3 -12 -4 -19 -1 -8 3 -5 6 6 6 11 1 17 -2 13 -5z m-984 -123
c169 3 180 3 212 -11 17 -7 40 -12 53 -11 12 1 22 -3 22 -9 0 -8 -16 -11 -49
-8 -36 2 -47 0 -44 -9 8 -21 -41 -15 -54 6 -10 15 -22 18 -75 16 -35 -2 -83
-6 -108 -9 -50 -7 -124 19 -99 34 7 5 17 6 21 4 5 -3 59 -4 121 -3z m384 -47
c-3 -3 -12 -4 -19 -1 -8 3 -5 6 6 6 11 1 17 -2 13 -5z m2663 -244 c8 -5 11
-10 5 -10 -5 0 -17 5 -25 10 -8 5 -10 10 -5 10 6 0 17 -5 25 -10z m-2908 -25
c0 -5 -5 -11 -11 -13 -6 -2 -11 4 -11 13 0 9 5 15 11 13 6 -2 11 -8 11 -13z
m3148 -25 c0 -5 -4 -10 -9 -10 -6 0 -13 5 -16 10 -3 6 1 10 9 10 9 0 16 -4 16
-10z m-2195 -62 c122 -53 135 -60 135 -70 0 -5 -4 -7 -9 -3 -5 3 -13 0 -17 -6
-5 -8 1 -10 22 -6 31 6 74 -14 156 -71 26 -17 49 -32 52 -32 3 0 24 -13 48
-28 236 -155 293 -196 293 -209 0 -8 8 -19 18 -24 11 -7 17 -7 17 1 0 17 17
11 84 -31 69 -43 77 -53 50 -63 -14 -5 -14 -9 -3 -22 9 -11 23 -14 47 -11 29
5 38 1 80 -41 62 -61 155 -162 214 -230 l47 -55 -20 -28 c-23 -32 -43 -57 -95
-114 -39 -44 -88 -138 -81 -158 2 -6 11 4 19 23 17 41 106 160 155 209 l34 34
29 -34 c96 -110 176 -240 163 -264 -3 -5 0 -5 6 1 14 13 -4 129 -41 264 -30
111 -33 131 -17 141 10 6 8 9 -8 9 -13 0 -23 5 -23 11 0 5 -11 35 -25 65 -14
30 -25 60 -25 67 0 7 -17 49 -38 93 -21 43 -47 104 -58 134 -10 30 -37 84 -60
120 -92 146 -115 190 -100 190 3 0 31 -16 63 -35 32 -19 62 -35 67 -35 5 0 27
-15 50 -33 23 -18 53 -40 67 -49 14 -9 32 -23 40 -30 8 -7 50 -44 94 -82 70
-61 190 -183 254 -257 38 -45 131 -183 131 -196 0 -6 4 -13 8 -15 15 -6 112
-162 112 -179 0 -9 9 -27 20 -40 l19 -24 -1 27 c-1 15 -6 24 -10 22 -12 -8 -9
31 3 43 8 8 7 31 -2 84 -7 41 -13 92 -14 114 -1 22 -6 49 -12 60 -6 11 -16 45
-23 75 -7 30 -24 75 -37 99 -24 45 -24 64 -1 40 57 -61 168 -217 168 -238 0
-6 4 -11 8 -11 5 0 23 -20 41 -45 17 -24 39 -52 49 -61 9 -9 24 -27 32 -40 9
-12 31 -40 50 -61 77 -85 122 -158 234 -382 64 -129 116 -242 116 -250 0 -9
11 -45 23 -81 13 -36 22 -71 20 -77 -3 -7 1 -13 7 -13 7 0 9 -8 5 -20 -4 -11
0 -29 9 -42 9 -12 16 -40 16 -62 0 -22 4 -67 9 -100 20 -126 31 -213 37 -291
3 -44 8 -83 11 -87 8 -14 -8 -49 -19 -42 -6 4 -8 -1 -6 -12 2 -11 10 -18 16
-17 7 2 12 -10 13 -30 0 -17 2 -54 3 -82 5 -89 -12 -229 -39 -330 -14 -55 -33
-130 -41 -168 -8 -38 -34 -112 -59 -164 -25 -52 -45 -96 -45 -99 0 -2 -18 -33
-40 -69 -22 -36 -40 -70 -40 -75 0 -6 -4 -10 -10 -10 -5 0 -10 -9 -10 -20 0
-11 -4 -20 -8 -20 -5 0 -14 -11 -20 -25 -6 -14 -18 -25 -27 -25 -8 0 -15 -6
-15 -12 -1 -57 -280 -378 -329 -378 -16 0 -21 -4 -18 -14 4 -9 -11 -28 -36
-50 -23 -19 -69 -61 -102 -92 -33 -30 -89 -75 -125 -98 -100 -64 -138 -78
-380 -141 -63 -16 -180 -27 -180 -16 0 11 -64 0 -72 -13 -16 -25 -414 -3 -442
25 -6 5 -22 9 -37 9 -65 0 -317 95 -499 188 -247 126 -321 185 -559 438 -41
43 -92 98 -114 121 -41 44 -56 65 -82 120 -8 18 -22 36 -30 40 -8 5 -28 30
-45 56 -16 26 -34 47 -39 47 -5 0 -11 6 -14 12 -34 82 -37 92 -24 76 14 -17
42 -26 35 -10 -17 35 -45 72 -56 72 -13 0 -92 115 -92 135 0 7 -7 18 -15 25
-8 7 -17 28 -21 49 -4 20 -11 41 -15 47 -16 21 -68 206 -62 222 5 11 3 13 -7
7 -10 -6 -12 -1 -7 23 7 33 -18 56 -26 24 -4 -16 -5 -16 -6 0 0 9 4 20 9 23 6
3 10 18 10 33 l1 27 16 -30 c8 -16 21 -37 28 -45 22 -26 28 -62 14 -72 -11 -8
-10 -9 3 -4 13 4 26 -7 47 -37 16 -23 45 -60 66 -82 l37 -40 -8 39 c-4 22 -17
55 -30 73 -33 50 -65 139 -74 208 -4 33 -11 71 -14 85 -22 91 -37 233 -37 348
0 132 7 174 22 136 7 -17 8 -17 8 4 1 12 -3 22 -9 22 -5 0 -10 12 -10 27 0 21
3 24 12 15 19 -19 25 -14 26 23 2 40 -13 55 -22 22 -15 -48 -24 17 -15 108 5
50 11 133 15 185 7 105 9 114 31 106 11 -5 13 -1 8 15 -5 16 -4 19 5 14 9 -5
10 -1 5 15 -4 12 -3 25 3 29 5 3 6 15 2 26 -6 17 -9 14 -15 -17 -10 -53 -22
-47 -22 10 1 26 0 74 -1 107 -1 33 -1 67 -1 75 0 8 -2 44 -5 80 -5 60 1 127
10 117 9 -9 44 -169 54 -247 14 -120 37 -216 85 -360 13 -41 35 -110 47 -152
12 -43 25 -78 29 -78 3 0 -1 44 -9 98 -18 122 -9 334 15 358 12 11 13 18 4 27
-17 17 -13 103 8 219 11 57 22 130 25 163 4 33 15 103 26 155 11 52 30 145 41
205 18 99 52 223 68 250 3 6 11 28 17 50 24 83 78 221 97 250 27 40 67 79 67
65 0 -6 5 -8 11 -5 6 5 4 11 -6 19 -16 11 -16 13 0 26 21 18 27 8 56 -85 12
-38 35 -95 50 -125 28 -52 106 -233 135 -311 40 -109 176 -346 248 -433 75
-90 154 -171 188 -190 26 -16 30 -16 20 -3 -8 9 -22 31 -31 49 -10 18 -39 71
-66 118 -26 46 -72 136 -102 200 -30 63 -68 142 -84 174 -16 32 -29 65 -29 72
0 8 -13 36 -30 62 -16 27 -30 56 -30 65 0 8 -14 47 -30 86 -17 39 -44 115 -61
168 -17 54 -37 115 -45 136 -22 59 -20 67 24 60 20 -4 78 -24 127 -45z m2484
6 c10 -9 -35 -3 -49 6 -11 8 -7 9 15 4 17 -4 32 -8 34 -10z m58 -20 c-3 -3
-12 -4 -19 -1 -8 3 -5 6 6 6 11 1 17 -2 13 -5z m290 -60 c-3 -3 -12 -4 -19 -1
-8 3 -5 6 6 6 11 1 17 -2 13 -5z m-59 -121 c-10 -2 -26 -2 -35 0 -10 3 -2 5
17 5 19 0 27 -2 18 -5z m-1873 -363 c3 -5 1 -10 -4 -10 -6 0 -11 5 -11 10 0 6
2 10 4 10 3 0 8 -4 11 -10z m2505 -644 c0 -3 -4 -8 -10 -11 -5 -3 -10 -1 -10
4 0 6 5 11 10 11 6 0 10 -2 10 -4z m170 -186 c0 -5 -5 -10 -11 -10 -5 0 -7 5
-4 10 3 6 8 10 11 10 2 0 4 -4 4 -10z m-5167 -211 c0 -19 -8 -88 -17 -154 -23
-173 -42 -515 -30 -523 11 -7 12 -86 2 -112 -4 -8 -9 -28 -12 -43 -4 -15 -11
-25 -16 -22 -6 4 -7 69 -4 168 4 98 1 217 -6 302 -12 133 -12 145 10 245 12
58 28 115 36 127 8 12 14 30 14 38 0 9 6 15 13 12 7 -2 11 -18 10 -38z m4608
-96 c39 -25 65 -65 55 -81 -3 -6 0 -13 6 -16 7 -3 0 -4 -17 -1 -16 3 -39 16
-51 29 -28 31 -57 46 -89 46 -48 0 -193 -173 -210 -250 -14 -64 -33 -35 -26
40 3 30 66 152 90 174 31 29 173 95 190 88 9 -3 32 -16 52 -29z m-53 -55 c7
-7 12 -20 12 -30 0 -10 4 -18 9 -18 16 0 33 -87 36 -191 3 -125 2 -120 20 -89
17 30 20 191 4 207 -6 6 -14 26 -19 46 l-7 35 31 -11 c18 -7 45 -21 61 -33 27
-20 28 -23 31 -127 1 -59 -1 -107 -5 -107 -5 0 -6 -22 -3 -50 3 -29 -2 -76
-13 -117 -29 -114 -76 -266 -91 -295 -8 -15 -16 -35 -18 -45 -9 -40 -19 -63
-27 -63 -5 0 -9 -7 -9 -17 0 -9 -11 -31 -25 -49 -14 -18 -25 -35 -25 -38 0
-24 -162 -206 -184 -206 -9 0 35 144 49 160 7 8 22 35 33 60 41 90 56 125 57
135 0 6 4 16 8 22 4 7 10 25 12 40 2 16 15 56 29 90 17 41 26 81 26 117 0 55
-15 106 -32 106 -4 0 -8 6 -8 13 0 7 -8 20 -17 28 -29 26 -53 58 -75 100 -23
44 -53 66 -62 46 -4 -6 -4 5 -2 27 3 21 8 41 11 45 9 8 35 -29 35 -49 0 -33
77 -85 110 -75 28 9 25 25 -4 25 -13 0 -28 6 -33 13 -16 19 -33 121 -22 128 5
3 7 14 3 25 -4 13 -3 15 3 6 13 -17 33 21 37 71 3 33 29 77 46 77 3 0 11 -5
18 -12z m-192 -395 c11 -4 12 -9 3 -19 -9 -11 -8 -14 7 -14 15 0 16 -2 5 -9
-12 -8 -12 -12 -2 -25 13 -15 51 -23 51 -11 0 4 -7 19 -15 35 l-15 29 30 -17
c17 -9 33 -25 36 -34 3 -10 14 -18 25 -18 11 0 22 -6 25 -14 7 -17 -15 -207
-25 -221 -4 -5 -14 -30 -21 -55 -7 -25 -19 -52 -25 -60 -6 -8 -19 -32 -28 -53
-26 -57 -37 -37 -33 56 3 68 9 91 34 137 30 53 30 56 15 88 -12 26 -13 35 -3
47 10 12 9 15 -5 15 -10 0 -15 3 -12 7 9 9 -23 44 -34 37 -5 -3 -9 4 -9 16 0
12 -4 18 -10 15 -6 -3 -10 4 -10 17 -1 13 -2 39 -4 58 -2 19 -1 27 1 17 3 -10
11 -21 19 -24z m524 37 c0 -5 -2 -10 -4 -10 -3 0 -8 5 -11 10 -3 6 -1 10 4 10
6 0 11 -4 11 -10z m-4440 -46 c0 -8 -4 -12 -10 -9 -5 3 -10 10 -10 16 0 5 5 9
10 9 6 0 10 -7 10 -16z m4370 -130 c0 -8 -5 -12 -10 -9 -6 4 -8 11 -5 16 9 14
15 11 15 -7z m-434 -101 c5 -45 -10 -26 -20 27 -5 26 -4 32 5 23 6 -6 13 -29
15 -50z m383 7 c8 0 42 -64 60 -112 9 -25 8 -28 -9 -28 -10 0 -22 -5 -25 -10
-4 -6 -12 -4 -21 5 -25 25 -34 17 -34 -29 0 -26 -6 -48 -14 -56 -14 -10 -42
-114 -34 -124 2 -2 -7 -15 -20 -29 -14 -15 -20 -30 -16 -40 4 -12 1 -17 -10
-17 -9 0 -16 -8 -16 -19 0 -14 -9 -21 -31 -26 -17 -4 -33 -5 -35 -2 -5 5 25
62 55 107 40 58 81 177 117 335 10 44 20 72 22 63 2 -10 7 -18 11 -18z m-4232
-81 c8 -70 -5 -58 -21 21 -11 52 -11 59 1 47 7 -7 16 -38 20 -68z m-607 -39
c0 -11 -4 -20 -9 -20 -5 0 -7 9 -4 20 3 11 7 20 9 20 2 0 4 -9 4 -20z m617
-62 c-3 -8 -6 -5 -6 6 -1 11 2 17 5 13 3 -3 4 -12 1 -19z m-620 -73 c-4 -8
-11 -15 -17 -15 -7 0 -7 6 0 21 13 23 26 19 17 -6z m-137 -215 c0 -5 -7 -10
-16 -10 -8 0 -12 5 -9 10 3 6 10 10 16 10 5 0 9 -4 9 -10z m583 -53 c19 -61
21 -81 7 -72 -5 3 -10 17 -10 31 0 29 -15 31 -30 3 -7 -11 -14 -19 -16 -16 -6
6 18 107 25 107 3 0 14 -24 24 -53z m4200 -4 c9 -9 -33 -53 -50 -53 -19 0 -16
10 9 37 23 24 30 27 41 16z m-73 -77 c0 -18 -26 -40 -34 -27 -9 14 4 41 20 41
8 0 14 -6 14 -14z m-4085 -16 c3 -5 1 -10 -4 -10 -6 0 -11 5 -11 10 0 6 2 10
4 10 3 0 8 -4 11 -10z m4030 -31 c-5 -16 -4 -19 6 -14 9 6 11 2 7 -13 -4 -14
-2 -20 4 -16 6 4 9 1 6 -7 -2 -8 -18 -15 -36 -17 -24 -3 -34 -11 -50 -43 -11
-21 -31 -49 -46 -60 -14 -11 -24 -24 -21 -29 3 -4 -2 -13 -11 -20 -8 -7 -13
-19 -10 -27 3 -7 -1 -13 -8 -13 -7 0 -19 -18 -26 -40 -7 -22 -19 -40 -25 -40
-7 0 -12 -12 -12 -27 0 -15 -6 -29 -12 -31 -6 -2 -18 -10 -25 -18 -8 -8 -20
-14 -26 -14 -6 0 -8 -4 -5 -10 3 -5 2 -10 -4 -10 -11 0 -22 -19 -71 -120 -44
-89 -83 -150 -96 -150 -7 0 -15 -11 -18 -25 -4 -14 -11 -23 -16 -20 -5 3 -17
-9 -26 -27 -9 -18 -32 -51 -50 -74 -19 -23 -34 -46 -34 -52 0 -6 -6 -15 -12
-19 -7 -4 -20 -17 -28 -27 -14 -18 -13 -19 2 -13 12 4 15 2 11 -9 -3 -9 -13
-14 -24 -11 -11 3 -19 0 -19 -6 0 -6 -3 -8 -6 -4 -18 18 54 133 168 267 26 30
48 60 48 65 0 6 9 21 20 35 11 14 20 33 20 43 0 10 11 29 25 43 14 14 25 28
25 31 0 3 11 20 24 38 14 17 38 58 54 90 36 70 122 184 140 184 6 1 12 7 12
15 0 8 8 21 18 28 21 15 58 86 49 94 -5 5 72 94 81 94 2 0 0 -10 -3 -21z
m-4219 -26 c-11 -11 -17 4 -9 23 7 18 8 18 11 1 2 -10 1 -21 -2 -24z m308 -18
c39 -19 76 -35 83 -35 7 0 19 -11 25 -25 6 -13 19 -27 30 -30 10 -4 18 -10 18
-15 0 -4 9 -10 20 -13 11 -3 23 -13 27 -24 4 -10 16 -26 28 -36 11 -10 14 -16
8 -12 -9 4 -11 1 -7 -10 4 -9 9 -13 12 -11 8 8 31 -26 32 -46 0 -31 -24 -19
-58 27 -17 24 -55 59 -82 77 -28 18 -50 36 -50 40 0 5 -7 8 -15 8 -8 0 -15 4
-15 9 0 5 -10 11 -22 13 -13 2 -24 9 -24 16 -1 6 -2 16 -3 22 0 5 -8 7 -16 4
-20 -8 -68 24 -59 38 5 8 -2 9 -24 5 -36 -7 -51 7 -25 22 28 16 43 13 117 -24z
m-111 -17 c12 -7 24 -14 26 -15 1 -1 -4 -12 -13 -25 -23 -33 -22 -128 3 -160
11 -13 23 -37 26 -51 4 -15 11 -30 16 -33 12 -7 11 22 -1 46 -5 11 -14 28 -19
39 -5 10 -12 38 -16 63 -10 63 9 77 70 53 25 -9 45 -21 45 -26 0 -5 10 -9 23
-9 13 0 17 -3 10 -8 -8 -5 -8 -12 3 -27 12 -16 17 -17 23 -6 11 18 40 2 73
-42 61 -79 22 -123 -75 -82 -35 14 -67 12 -67 -5 0 -16 31 -40 51 -40 11 0 29
-4 39 -10 23 -13 79 5 101 33 16 20 17 20 38 -26 12 -25 21 -51 21 -56 0 -19
-17 -12 -28 12 -7 15 -11 17 -11 6 -1 -9 -16 -24 -35 -34 -33 -18 -47 -41 -45
-75 1 -8 5 -4 9 10 l8 25 1 -26 c1 -23 61 -120 95 -154 7 -7 37 -25 67 -40 30
-15 57 -33 61 -39 4 -6 8 -8 8 -5 0 8 122 -23 185 -45 22 -8 39 -20 37 -26 -1
-6 8 -14 21 -19 12 -5 29 -17 37 -27 14 -16 12 -17 -31 -11 -25 3 -68 14 -95
23 -27 10 -60 17 -74 16 -20 -1 -22 0 -10 8 11 7 6 8 -16 4 -29 -5 -109 24
-124 46 -3 4 -23 17 -45 28 -32 16 -154 118 -200 166 -18 20 -65 95 -65 106 0
5 -4 10 -10 10 -5 0 -10 6 -10 13 0 7 -16 35 -35 62 -19 28 -45 70 -57 95 -13
25 -25 47 -28 50 -29 29 -47 122 -36 184 7 39 15 43 49 24z m-191 -264 l7 -29
-20 25 c-11 14 -25 34 -31 45 -11 19 -10 19 12 4 13 -9 27 -29 32 -45z m4115
50 c-3 -3 -12 -4 -19 -1 -8 3 -5 6 6 6 11 1 17 -2 13 -5z m31 -21 c-2 -10 -14
-23 -28 -30 -14 -7 -24 -17 -22 -23 1 -5 -2 -10 -8 -10 -5 0 -10 -4 -10 -10 0
-5 7 -10 15 -10 26 0 16 -28 -17 -51 -18 -13 -36 -28 -40 -35 -9 -14 -48 -7
-48 10 0 20 39 76 54 76 7 0 21 11 30 25 9 14 14 25 11 25 -3 0 6 11 21 25 31
29 47 32 42 8z m-4199 -65 c18 -39 150 -215 185 -245 14 -13 33 -23 42 -23 15
0 15 2 0 25 -25 37 -12 31 44 -25 28 -27 53 -50 55 -50 6 0 85 -78 85 -85 0
-3 -9 -1 -19 5 -11 5 -27 10 -35 10 -9 0 -46 23 -84 50 -38 28 -73 50 -78 50
-6 0 -19 8 -30 18 -10 10 -35 28 -54 41 -19 13 -47 35 -62 49 -24 22 -29 23
-45 11 -16 -13 -17 -12 -5 3 9 12 10 18 2 23 -14 9 -17 5 -21 -20 -4 -26 20
-70 65 -119 43 -47 48 -61 7 -22 -17 16 -38 29 -49 30 -10 0 -32 13 -49 27
-34 29 -103 115 -103 130 0 23 23 3 75 -66 31 -41 59 -75 61 -75 7 0 -57 93
-69 101 -5 4 -11 26 -13 49 -2 31 2 46 17 61 12 12 18 27 15 36 -4 10 -2 13 8
10 8 -3 17 0 20 8 3 9 0 12 -10 8 -7 -3 -14 0 -14 6 0 6 10 11 23 11 15 0 26
-10 36 -32z m234 -33 c15 -32 21 -52 13 -49 -7 3 -22 25 -34 50 -24 49 -26 54
-14 54 4 0 20 -25 35 -55z m437 8 c0 -22 -2 -25 -10 -13 -13 20 -13 40 0 40 6
0 10 -12 10 -27z m3550 2 c-7 -9 -15 -13 -17 -11 -6 6 20 36 26 30 2 -2 -2
-10 -9 -19z m-4043 -35 c-3 -13 0 -20 10 -20 8 0 11 5 8 10 -3 6 -1 10 4 10 6
0 11 -7 11 -15 0 -8 14 -21 30 -30 17 -9 41 -33 55 -54 13 -22 43 -59 65 -83
23 -23 51 -56 63 -71 12 -16 39 -47 60 -69 61 -66 47 -80 -20 -20 -23 20 -60
53 -83 72 -59 49 -110 103 -110 116 0 6 -7 17 -15 24 -8 7 -25 32 -37 56 -13
27 -24 40 -29 33 -4 -8 -13 -1 -23 19 -20 39 -20 42 0 42 11 0 15 -6 11 -20z
m473 -99 c3 -21 14 -37 30 -46 46 -26 111 -54 140 -60 17 -4 38 -20 52 -41 12
-18 26 -34 29 -34 4 0 9 -15 13 -32 5 -26 9 -30 16 -18 9 13 12 12 25 -4 8
-11 14 -21 12 -22 -3 -3 -134 23 -156 31 -7 3 -11 12 -7 20 3 8 -1 18 -9 22
-8 5 -18 19 -24 33 -5 14 -10 18 -10 10 -1 -9 6 -26 15 -38 23 -33 11 -37 -43
-17 -33 12 -67 37 -110 82 -80 84 -96 143 -37 143 16 0 23 -4 18 -11 -3 -6 0
-15 7 -20 23 -14 30 -10 19 10 -13 26 -13 34 3 29 6 -3 14 -19 17 -37z m54 14
c3 -8 1 -15 -4 -15 -6 0 -10 7 -10 15 0 8 2 15 4 15 2 0 6 -7 10 -15z m51 -17
c13 -13 33 -30 46 -39 32 -23 19 -33 -17 -14 -16 8 -34 15 -40 15 -18 0 -35
26 -28 44 8 21 12 20 39 -6z m-702 -68 c-6 -6 -33 30 -33 43 0 5 9 -1 19 -14
11 -13 17 -26 14 -29z m37 -32 c0 -6 -6 -5 -15 2 -8 7 -15 14 -15 16 0 2 7 1
15 -2 8 -4 15 -11 15 -16z m110 -58 c0 -5 -7 -7 -15 -4 -8 4 -15 8 -15 10 0 2
7 4 15 4 8 0 15 -4 15 -10z m60 -40 c18 -17 42 -33 54 -36 25 -6 90 -63 82
-71 -3 -3 -22 8 -43 24 -21 16 -49 36 -63 45 -40 25 -86 68 -74 68 7 0 26 -14
44 -30z m3770 -40 c13 -8 9 -15 -5 -7 -2 1 -11 -7 -19 -18 -14 -19 -15 -19
-22 -1 -4 11 -2 21 7 27 18 11 21 11 39 -1z m-3444 -57 c19 -12 22 -18 12 -25
-9 -6 -6 -7 9 -3 13 3 44 -5 80 -21 69 -32 83 -38 143 -55 25 -7 50 -17 57
-22 7 -5 17 -6 23 -2 5 3 10 -1 10 -9 0 -19 5 -20 30 -6 13 7 29 5 53 -5 57
-24 50 -31 -32 -34 -72 -2 -81 0 -106 23 -29 27 -45 33 -45 17 0 -5 9 -13 21
-16 14 -5 18 -10 11 -17 -6 -6 -21 -4 -42 7 -26 13 -30 19 -19 26 11 8 10 13
-10 29 -12 11 -27 18 -31 15 -4 -3 -33 8 -63 24 -36 19 -54 24 -50 15 3 -8 1
-14 -3 -14 -15 0 -98 60 -84 60 10 0 10 3 0 15 -17 21 3 20 36 -2z m3454 7 c0
-10 -32 -30 -50 -30 -8 0 -8 6 0 20 11 20 50 28 50 10z m-50 -57 c0 -34 -27
-70 -69 -91 -25 -12 -57 -30 -70 -40 -19 -13 -22 -13 -15 -2 5 8 20 32 33 53
32 51 121 110 121 80z m-2846 -76 c12 -13 27 -22 34 -19 12 4 17 -16 12 -48
-3 -24 -6 -24 -67 6 -52 26 -55 29 -30 32 25 3 40 32 16 32 -5 0 -7 5 -4 10 9
15 15 13 39 -13z m126 -108 c0 -5 -6 -9 -12 -10 -7 0 2 -5 20 -10 17 -5 32
-16 32 -23 0 -11 -6 -11 -34 2 -24 11 -33 21 -32 37 1 21 26 25 26 4z m2250 1
c0 -5 -5 -10 -11 -10 -5 0 -7 5 -4 10 3 6 8 10 11 10 2 0 4 -4 4 -10z m-2300
-10 c0 -5 -2 -10 -4 -10 -3 0 -8 5 -11 10 -3 6 -1 10 4 10 6 0 11 -4 11 -10z
m-220 -24 c0 -8 8 -17 18 -19 13 -4 12 -5 -5 -6 -16 -1 -21 -6 -17 -16 4 -10
13 -13 24 -10 20 6 36 -10 20 -20 -17 -11 -71 6 -77 23 -4 10 -12 21 -20 25
-20 12 -16 26 6 20 10 -3 22 0 25 6 10 16 26 14 26 -3z m400 -76 c-20 -13 -33
-13 -25 0 3 6 14 10 23 10 15 0 15 -2 2 -10z m-401 -92 c24 -18 185 -98 198
-98 4 0 2 5 -5 12 -17 17 4 51 25 40 9 -5 24 -7 34 -5 11 3 23 -3 31 -16 7
-12 17 -21 22 -21 5 0 20 -10 33 -22 22 -21 23 -21 43 -3 11 10 20 13 20 7 0
-6 15 -15 34 -21 19 -5 50 -20 68 -34 47 -35 63 -43 53 -28 -13 22 48 -15 80
-48 29 -29 53 -42 40 -21 -9 15 19 12 41 -5 18 -13 18 -14 -5 -8 -18 5 -22 3
-16 -6 4 -7 18 -11 32 -8 13 2 42 -4 63 -14 22 -11 46 -19 54 -19 8 0 18 -4
21 -10 7 -11 -12 -14 -60 -11 l-30 2 25 -20 c14 -11 34 -21 45 -22 11 -1 25
-3 32 -3 6 -1 23 -12 38 -26 22 -21 23 -25 10 -33 -9 -5 -21 -5 -28 0 -17 13
-172 15 -232 4 -38 -7 -56 -6 -77 5 -15 8 -43 14 -63 14 -20 0 -43 7 -51 15
-9 8 -24 15 -33 15 -20 0 -48 27 -38 36 21 21 233 7 326 -22 18 -5 22 -4 20
10 -2 9 -8 16 -13 16 -5 -1 -13 5 -18 14 -6 10 -22 16 -44 16 -19 0 -45 5 -57
12 -27 15 -41 17 -192 21 -73 2 -131 9 -148 17 -30 15 -31 37 -1 32 10 -2 16
-1 12 4 -5 4 1 13 12 21 18 13 25 11 62 -11 l42 -25 -40 -4 c-29 -3 -27 -4 9
-2 26 1 51 5 55 9 10 11 -36 42 -108 72 -36 15 -72 33 -80 41 -11 10 -5 10 25
-2 22 -9 36 -12 30 -7 -14 15 -87 43 -80 32 11 -17 -10 -11 -115 34 -94 41
-159 80 -160 98 0 10 31 -2 59 -24z m2731 -48 c0 -5 -9 -14 -19 -20 -18 -9
-21 -2 -12 28 3 7 31 0 31 -8z m-2800 -44 c0 -2 -16 1 -35 6 -19 6 -32 15 -29
20 5 7 64 -17 64 -26z m2737 17 c0 -22 -35 -63 -54 -63 -7 0 -14 8 -14 18 -1
9 -3 27 -4 40 -2 19 2 22 35 22 28 0 37 -4 37 -17z m293 -3 c0 -5 -5 -10 -11
-10 -5 0 -7 5 -4 10 3 6 8 10 11 10 2 0 4 -4 4 -10z m-248 -58 c7 -24 -1 -42
-18 -42 -8 0 -14 -5 -14 -12 0 -9 -3 -9 -12 0 -8 8 -15 8 -23 2 -19 -16 -41
15 -25 35 7 8 18 15 25 15 7 0 18 6 25 14 14 18 36 11 42 -12z m-1132 4 c0 -3
-4 -8 -10 -11 -5 -3 -10 -1 -10 4 0 6 5 11 10 11 6 0 10 -2 10 -4z m-487 -27
c66 -16 96 -28 113 -46 13 -14 21 -30 18 -35 -4 -6 -9 -5 -14 2 -4 7 -10 8
-13 3 -7 -12 20 -46 31 -39 9 5 14 -10 28 -84 5 -24 5 -24 -9 -5 -13 16 -17
17 -31 6 -14 -12 -16 -11 -16 7 0 11 6 22 13 25 6 2 -5 12 -26 23 -28 14 -36
22 -31 36 8 25 -27 55 -79 69 -44 12 -87 36 -87 50 0 12 0 12 103 -12z m-453
-49 c0 -5 -5 -10 -11 -10 -5 0 -7 5 -4 10 3 6 8 10 11 10 2 0 4 -4 4 -10z
m-440 -25 c16 -19 1 -19 -24 0 -16 12 -17 15 -4 15 8 0 21 -7 28 -15z m610
-26 c0 -6 -4 -7 -10 -4 -5 3 -10 11 -10 16 0 6 5 7 10 4 6 -3 10 -11 10 -16z
m45 -9 c3 -5 -1 -10 -9 -10 -9 0 -16 5 -16 10 0 6 4 10 9 10 6 0 13 -4 16 -10z
m158 -47 c-7 -2 -19 -2 -25 0 -7 3 -2 5 12 5 14 0 19 -2 13 -5z m1307 -23 c0
-5 -4 -10 -10 -10 -5 0 -10 5 -10 10 0 6 5 10 10 10 6 0 10 -4 10 -10z m-1219
-41 c10 -12 19 -19 19 -14 0 4 10 -5 23 -21 39 -50 55 -64 61 -51 3 9 5 8 5
-1 1 -16 -25 -26 -66 -25 -18 0 -33 -4 -33 -8 0 -5 -9 -9 -21 -9 -15 0 -19 5
-15 15 4 10 -1 15 -14 15 -11 0 -19 5 -17 12 1 7 -2 13 -8 13 -5 1 -17 5 -26
9 -9 4 -20 6 -25 5 -21 -4 -35 2 -28 12 3 6 1 15 -6 19 -15 9 17 45 47 53 34
10 85 -2 104 -24z m-877 -48 c3 -5 22 -12 43 -16 20 -4 46 -13 57 -21 20 -14
20 -14 -4 -14 -14 0 -38 7 -54 15 -15 8 -35 15 -43 15 -8 0 -21 7 -29 15 -14
13 -13 15 5 15 11 0 22 -4 25 -9z m516 -51 c8 -5 11 -12 8 -16 -4 -3 -14 1
-23 10 -18 17 -9 21 15 6z m-307 -7 c-7 -2 -19 -2 -25 0 -7 3 -2 5 12 5 14 0
19 -2 13 -5z m355 -24 c-2 -6 -8 -10 -13 -10 -5 0 -11 4 -13 10 -2 6 4 11 13
11 9 0 15 -5 13 -11z m105 -46 c-7 -2 -13 -11 -13 -19 0 -16 -16 -19 -25 -4
-10 16 4 30 28 29 12 0 16 -3 10 -6z m71 -8 c3 3 3 1 -1 -4 -13 -14 -73 -24
-73 -12 0 6 9 11 20 11 11 0 20 5 20 11 0 8 4 9 13 0 8 -6 17 -9 21 -6z m-124
-5 c0 -5 -4 -10 -9 -10 -6 0 -13 5 -16 10 -3 6 1 10 9 10 9 0 16 -4 16 -10z
m456 -271 l-14 -34 -1 31 c-1 16 5 36 11 42 19 19 21 -1 4 -39z m-51 -49 c-20
-23 -29 -21 -19 4 3 9 13 16 22 16 13 0 12 -3 -3 -20z"/>
<path d="M2660 5180 c0 -11 79 -34 87 -26 3 3 0 7 -8 10 -8 2 -29 9 -46 15
-19 6 -33 6 -33 1z"/>
<path d="M2252 5050 c-17 -28 -15 -32 8 -13 20 18 26 33 12 33 -4 0 -13 -9
-20 -20z"/>
<path d="M3800 4996 c0 -2 16 -13 35 -25 19 -11 35 -16 35 -11 0 5 -13 16 -30
25 -30 15 -40 18 -40 11z"/>
<path d="M3092 4931 c-21 -6 -20 -7 15 -26 21 -11 40 -22 43 -25 17 -20 110
-68 115 -60 3 6 1 10 -5 10 -6 0 -9 4 -6 9 6 9 -15 29 -49 47 -11 5 -36 19
-55 31 -22 12 -44 18 -58 14z"/>
<path d="M3890 4920 c10 -19 71 -83 102 -107 13 -9 19 -8 32 6 17 19 22 36 7
27 -4 -3 -19 4 -32 15 -30 27 -106 79 -114 79 -3 0 -1 -9 5 -20z"/>
<path d="M3870 4863 c0 -13 29 -38 35 -31 3 3 -4 13 -15 23 -11 10 -20 13 -20
8z"/>
<path d="M4090 4784 c19 -21 36 -41 38 -43 1 -2 5 -1 8 2 9 9 -12 33 -50 59
l-31 21 35 -39z"/>
<path d="M3295 4800 c3 -5 10 -10 16 -10 5 0 9 5 9 10 0 6 -7 10 -16 10 -8 0
-12 -4 -9 -10z"/>
<path d="M4030 4786 c0 -9 5 -16 10 -16 6 0 10 4 10 9 0 6 -4 13 -10 16 -5 3
-10 -1 -10 -9z"/>
<path d="M3380 4765 c0 -2 10 -10 23 -16 20 -11 21 -11 8 4 -13 16 -31 23 -31
12z"/>
<path d="M3447 4719 c7 -7 15 -10 18 -7 3 3 -2 9 -12 12 -14 6 -15 5 -6 -5z"/>
<path d="M3668 4507 c70 -69 82 -84 82 -94 0 -6 7 -14 15 -17 9 -3 23 -22 31
-41 8 -19 19 -35 24 -35 16 0 23 27 11 42 -56 67 -75 87 -83 82 -4 -3 -12 5
-17 19 -10 26 -75 87 -94 87 -7 0 7 -19 31 -43z"/>
<path d="M4590 4540 c0 -5 11 -20 25 -34 14 -14 25 -29 25 -34 0 -5 9 -17 20
-27 19 -18 20 -17 20 3 0 12 -9 26 -20 32 -11 6 -20 16 -20 22 0 6 -10 19 -22
29 -24 22 -28 23 -28 9z"/>
<path d="M4280 4500 c0 -5 7 -10 15 -10 8 0 15 -5 15 -12 0 -6 3 -8 6 -5 8 8
-14 37 -27 37 -5 0 -9 -4 -9 -10z"/>
<path d="M4308 4435 c-4 -19 -1 -25 13 -25 22 0 25 23 5 39 -11 9 -15 6 -18
-14z"/>
<path d="M4390 4431 c0 -6 4 -13 10 -16 6 -3 7 1 4 9 -7 18 -14 21 -14 7z"/>
<path d="M4705 4400 c-3 -5 -1 -10 4 -10 6 0 11 5 11 10 0 6 -2 10 -4 10 -3 0
-8 -4 -11 -10z"/>
<path d="M4310 4385 c0 -12 -7 -14 -27 -9 -27 6 -27 5 -8 -8 46 -33 79 -29 68
10 -6 25 -33 30 -33 7z"/>
<path d="M4900 4110 c0 -5 5 -10 10 -10 6 0 10 5 10 10 0 6 -4 10 -10 10 -5 0
-10 -4 -10 -10z"/>
<path d="M4945 4023 c4 -10 13 -31 19 -47 6 -17 21 -41 34 -55 14 -15 22 -35
20 -50 -2 -13 3 -26 10 -28 6 -3 12 1 12 9 0 10 3 9 10 -2 7 -11 12 -12 20 -4
9 9 8 18 -2 35 -21 38 -50 69 -65 69 -8 0 -13 7 -11 15 3 16 -32 75 -46 75 -4
0 -5 -8 -1 -17z"/>
<path d="M4248 3887 c-135 -57 -249 -151 -292 -243 -35 -73 -33 -97 2 -48 35
48 125 130 166 151 17 9 33 19 36 24 3 4 44 17 91 28 148 36 317 25 392 -25
53 -35 83 -27 84 21 1 30 -4 38 -30 51 -49 26 -86 35 -187 45 -195 21 -201 21
-262 -4z"/>
<path d="M2245 3804 c-27 -7 -72 -19 -100 -25 -56 -13 -91 -28 -65 -29 8 0 60
9 114 20 139 28 291 28 374 0 76 -25 117 -22 57 4 -98 43 -283 58 -380 30z"/>
<path d="M4721 3575 c-53 -34 -55 -34 -83 -18 -15 10 -28 21 -28 25 0 4 -7 8
-15 8 -21 0 -19 -20 6 -47 l22 -22 -27 -11 c-15 -5 -51 -20 -79 -33 -76 -34
-133 -51 -151 -44 -11 5 -16 20 -16 52 0 33 -4 45 -14 45 -12 0 -14 -13 -13
-57 l2 -56 -50 -14 c-30 -8 -79 -12 -122 -10 -40 2 -73 0 -73 -4 0 -4 26 -15
58 -25 54 -16 110 -14 191 7 8 3 18 -10 26 -31 6 -19 20 -37 30 -39 14 -2 16
1 10 15 -4 11 -10 31 -12 45 -4 24 0 27 74 54 43 16 100 40 127 53 56 28 79
22 84 -22 2 -16 10 -26 20 -27 9 0 27 -2 40 -5 29 -5 28 4 -9 54 -17 24 -30
44 -28 46 2 2 20 11 39 21 45 22 70 45 70 62 0 21 -21 15 -79 -22z"/>
<path d="M3010 3562 c0 -5 32 -33 70 -61 57 -41 75 -61 96 -107 36 -79 58
-177 58 -263 1 -74 1 -75 45 -123 25 -26 51 -48 58 -48 19 0 16 14 -7 35 -11
10 -20 22 -20 28 0 5 -11 18 -25 29 -22 17 -25 27 -25 81 0 99 -52 281 -93
326 -12 13 -47 40 -77 60 -78 52 -80 53 -80 43z"/>
<path d="M5066 3354 c12 -3 24 -14 27 -25 3 -10 10 -19 16 -19 7 0 7 8 2 23
-6 15 -17 22 -37 24 -18 1 -21 -1 -8 -3z"/>
<path d="M2372 3308 c-75 -11 -175 -55 -224 -98 -24 -20 -58 -46 -76 -58 -19
-11 -63 -55 -98 -97 -60 -73 -64 -80 -64 -129 0 -28 -3 -61 -6 -73 -9 -32 10
-29 26 5 19 37 141 191 176 222 16 14 81 50 144 81 90 44 132 58 195 67 157
22 188 23 240 7 28 -8 54 -15 60 -15 22 0 -64 60 -105 74 -51 18 -192 25 -268
14z"/>
<path d="M4960 3279 c0 -41 -55 -74 -205 -122 -101 -32 -158 -46 -345 -82 -36
-7 -101 -20 -145 -29 -44 -8 -136 -24 -205 -36 -69 -11 -174 -32 -235 -47 -60
-14 -155 -36 -210 -48 -167 -38 -470 -153 -670 -253 -55 -28 -139 -69 -187
-91 -49 -22 -88 -44 -88 -50 0 -6 -6 -11 -13 -11 -16 0 -226 -106 -247 -125
-8 -8 -37 -23 -64 -34 -26 -12 -78 -41 -115 -66 -37 -24 -94 -52 -130 -61 -61
-17 -64 -17 -77 0 -12 17 -14 17 -29 2 -18 -18 -13 -51 10 -60 8 -3 19 -24 25
-48 6 -24 20 -62 31 -85 10 -24 19 -47 19 -53 0 -14 80 -174 91 -180 4 -3 15
-21 23 -40 8 -20 32 -55 53 -80 21 -25 47 -58 57 -73 31 -50 49 -71 141 -160
102 -100 236 -211 277 -230 16 -6 28 -15 28 -18 0 -4 8 -9 18 -13 9 -3 35 -17
57 -31 22 -14 57 -34 78 -46 22 -11 37 -26 34 -33 -6 -15 29 -40 58 -42 11 -1
36 -5 55 -9 34 -7 34 -7 15 10 -16 13 -16 16 -3 11 9 -3 36 -10 60 -16 24 -6
54 -15 68 -20 14 -5 45 -12 69 -15 24 -3 49 -9 55 -14 6 -5 34 -12 61 -15 28
-4 66 -9 85 -12 153 -21 316 -21 448 1 276 46 541 161 677 293 17 16 48 40 70
53 53 31 264 232 292 278 12 20 31 56 43 80 11 25 31 59 44 76 13 16 27 46 31
65 9 39 24 70 43 85 6 5 21 34 32 64 72 199 72 739 0 971 -6 19 -13 51 -16 70
-11 84 -76 242 -115 281 -27 27 -49 31 -49 8z m46 -46 c7 -10 14 -24 14 -32 0
-8 6 -22 14 -30 20 -24 44 -108 51 -181 4 -36 11 -80 15 -99 9 -33 -11 -154
-31 -193 -5 -10 -9 -24 -9 -33 0 -17 -59 -87 -69 -81 -4 3 -13 1 -21 -4 -12
-7 -12 -10 3 -16 15 -5 15 -8 -6 -24 -78 -62 -115 45 -42 120 22 22 34 43 30
50 -4 6 2 21 12 33 23 26 45 95 32 102 -14 9 -51 -15 -45 -30 3 -9 0 -12 -9
-8 -8 3 -18 -2 -21 -11 -3 -9 -10 -16 -15 -16 -5 0 0 16 11 35 15 26 16 33 5
28 -9 -3 -15 1 -15 10 0 8 -28 -13 -63 -48 -53 -53 -71 -64 -115 -74 -29 -6
-76 -11 -103 -11 l-51 0 23 38 c13 20 28 45 33 54 8 13 6 22 -7 35 -16 16 -17
16 -17 -6 0 -13 -12 -45 -26 -71 l-26 -48 -91 -16 c-51 -8 -123 -20 -162 -26
-100 -15 -359 -75 -505 -116 -69 -20 -136 -38 -150 -41 -14 -3 -31 -10 -38
-16 -17 -13 -123 -57 -138 -57 -22 0 -230 -72 -289 -100 -33 -15 -107 -49
-165 -75 -228 -103 -268 -124 -342 -177 -91 -66 -149 -88 -232 -88 -90 0 -101
-15 -22 -30 36 -7 66 -15 66 -19 0 -4 -18 -24 -39 -44 -43 -41 -75 -46 -160
-26 -24 5 -46 7 -49 4 -15 -14 97 -74 140 -75 19 0 38 12 64 40 21 22 41 40
45 40 4 0 10 -18 14 -40 7 -44 25 -55 25 -16 0 14 4 27 9 31 13 8 19 -26 9
-54 -13 -36 -2 -37 17 -2 8 17 21 31 28 31 8 0 7 -4 -3 -10 -12 -7 -12 -10 -1
-10 9 0 11 -8 7 -27 l-6 -28 22 25 c25 27 49 33 56 13 2 -8 -5 -13 -16 -13
-11 0 -22 -9 -25 -21 -5 -17 -3 -18 10 -7 14 11 15 11 11 -2 -2 -8 -20 -18
-38 -21 -47 -10 -214 7 -258 27 -101 43 -130 58 -165 86 -21 17 -43 43 -49 57
-13 34 -37 131 -38 153 0 23 38 32 73 19 26 -10 27 -10 16 10 -6 12 -9 30 -6
40 6 24 -10 25 -17 1 -5 -16 -63 -49 -71 -41 -3 4 -8 48 -6 65 1 7 7 14 14 17
6 3 29 13 51 22 l38 16 -6 -28 c-5 -25 -4 -26 7 -9 19 30 70 76 84 76 7 0 21
8 31 18 10 10 47 35 83 55 71 42 92 54 130 79 14 10 66 38 115 63 98 50 156
82 194 108 14 9 46 23 70 32 25 8 65 25 90 36 25 12 46 21 47 21 3 -2 67 26
148 63 33 15 87 36 120 45 33 10 98 30 145 44 172 52 316 86 535 126 28 5 104
20 170 34 66 14 194 39 285 56 216 41 248 48 287 67 18 8 40 12 49 9 10 -4 32
-2 50 4 43 15 69 1 84 -45 6 -19 16 -35 21 -35 14 0 11 15 -8 49 -26 44 -56
58 -95 43 -48 -18 -44 -8 4 12 83 34 111 51 131 78 24 33 26 33 43 11z m141
-550 c-3 -10 -5 -4 -5 12 0 17 2 24 5 18 2 -7 2 -21 0 -30z m-397 -2 c0 -5
-17 -11 -37 -13 -41 -6 -48 -4 -40 9 8 12 77 16 77 4z m-95 -20 c-6 -5 -36 -6
-70 -1 l-60 7 70 2 c42 0 65 -3 60 -8z m467 -33 c-7 -7 -12 -8 -12 -2 0 14 12
26 19 19 2 -3 -1 -11 -7 -17z m-805 -4 c-3 -3 -12 -4 -19 -1 -8 3 -5 6 6 6 11
1 17 -2 13 -5z m513 -99 c-7 -8 -17 -15 -22 -15 -6 0 -5 7 2 15 7 8 17 15 22
15 6 0 5 -7 -2 -15z m327 -27 c-3 -7 -5 -2 -5 12 0 14 2 19 5 13 2 -7 2 -19 0
-25z m-262 -38 c-3 -5 -10 -10 -16 -10 -5 0 -9 5 -9 10 0 6 7 10 16 10 8 0 12
-4 9 -10z m252 -142 c-3 -8 -6 -5 -6 6 -1 11 2 17 5 13 3 -3 4 -12 1 -19z m-9
-115 c-11 -53 -32 -87 -23 -38 3 17 7 41 9 55 3 14 5 26 5 28 1 1 5 2 10 2 5
0 4 -21 -1 -47z m-902 20 c13 -13 19 -14 22 -5 5 15 93 15 146 -1 47 -14 44
-33 -4 -29 -33 2 -34 2 -16 -13 19 -15 19 -15 -3 -15 -44 0 -68 -61 -34 -85
13 -9 22 -9 46 3 17 8 49 16 71 17 23 1 57 2 76 4 l35 2 -30 13 c-44 20 -74
45 -55 46 9 0 5 6 -10 15 -21 12 -22 14 -6 15 31 0 223 -98 244 -125 11 -14
25 -25 30 -25 16 0 208 -156 216 -175 3 -9 6 -28 6 -41 0 -15 6 -24 16 -24 21
0 12 -37 -19 -86 -22 -34 -57 -46 -57 -20 0 10 -18 13 -82 11 -172 -5 -253
-16 -468 -65 -52 -12 -124 -28 -160 -36 -96 -21 -185 -49 -380 -121 -280 -103
-327 -122 -472 -195 -76 -37 -144 -68 -152 -68 -10 0 -12 8 -7 33 7 33 7 33
79 36 12 1 22 5 22 10 0 5 -9 7 -19 4 -10 -3 -29 1 -41 7 -16 8 -25 9 -29 2
-4 -6 -12 -7 -19 -3 -20 12 22 45 49 38 28 -7 100 60 78 74 -9 5 -16 3 -20 -8
-3 -9 -12 -17 -21 -19 -8 -1 -33 -10 -54 -20 -27 -13 -39 -15 -42 -6 -2 7 -13
12 -25 12 -20 -1 -20 -2 -5 -13 15 -12 15 -14 0 -23 -24 -14 -52 -6 -52 16 0
10 -4 22 -10 25 -15 9 -12 45 4 45 7 0 17 -10 21 -22 l8 -23 4 23 c3 14 12 22
24 22 10 0 19 5 19 10 0 6 -7 10 -15 10 -11 0 -15 11 -15 39 0 37 2 40 33 43
27 3 32 7 32 31 1 31 -9 34 -32 11 -12 -11 -19 -12 -27 -4 -8 8 -6 14 7 21 10
6 17 22 17 41 0 24 4 29 18 26 23 -6 40 12 35 37 -2 11 -1 40 3 64 4 35 15 53
56 93 27 27 52 48 53 46 2 -2 6 -31 10 -64 5 -50 3 -63 -9 -67 -9 -4 -16 -13
-16 -21 0 -9 -10 -20 -22 -27 -18 -10 -20 -9 -15 5 8 20 -6 21 -23 1 -10 -12
-10 -18 0 -30 6 -8 9 -19 5 -25 -3 -6 -8 -28 -10 -50 -4 -33 0 -44 23 -65 33
-31 56 -33 47 -5 -5 16 -2 20 19 20 18 0 25 5 25 20 1 11 1 29 2 39 0 11 12
24 30 31 16 7 29 16 29 21 0 5 11 14 25 19 14 5 25 16 25 25 0 8 7 15 15 15 8
0 15 5 15 11 0 6 9 8 20 4 14 -4 18 -2 15 7 -5 13 4 19 75 53 19 9 44 24 55
35 29 27 66 33 111 18 36 -13 40 -13 40 3 0 11 -11 20 -31 24 l-30 7 40 12
c24 7 44 20 50 34 12 26 21 28 29 5 7 -17 -9 -33 -32 -33 -8 0 -12 -6 -9 -12
4 -14 48 -12 57 2 3 5 18 12 33 15 15 4 32 16 38 26 11 21 39 26 39 7 0 -7 7
-3 15 9 9 12 15 26 14 30 -4 24 5 33 49 49 63 24 72 33 59 61 -11 25 -62 33
-69 11 -3 -7 -13 -2 -26 12 l-21 23 -9 -24 c-6 -16 -6 -26 1 -31 13 -8 18 -38
6 -38 -4 0 -6 -7 -3 -15 4 -8 1 -15 -5 -15 -6 0 -11 7 -11 15 0 17 -35 55 -50
55 -15 0 -12 36 3 48 7 6 24 9 38 6 19 -5 21 -3 9 5 -13 9 -13 11 3 11 9 0 17
6 17 14 0 18 33 29 63 21 16 -5 18 -4 8 4 -11 7 -5 11 25 16 21 4 44 8 49 10
25 9 55 3 71 -12z m-266 -33 c-8 -5 -23 -10 -34 -10 -10 0 -35 -10 -55 -22
-20 -13 -43 -22 -51 -20 -8 1 -21 -7 -28 -18 -11 -18 -10 -20 13 -20 18 0 25
-5 25 -19 0 -20 18 -31 51 -31 28 0 23 -29 -7 -40 -31 -12 -44 -6 -44 21 0 11
-5 17 -10 14 -6 -4 -8 -15 -5 -25 5 -14 -5 -27 -36 -50 -23 -16 -50 -30 -61
-30 -10 0 -21 -7 -24 -15 -4 -8 -12 -15 -20 -15 -7 0 -18 -8 -23 -17 -8 -14
-13 -15 -19 -5 -5 7 -16 10 -25 7 -16 -7 -31 -34 -22 -43 3 -3 5 0 5 6 0 7 5
12 11 12 8 0 7 -5 -2 -16 -7 -8 -21 -13 -31 -11 -10 3 -16 1 -12 -4 3 -5 -3
-9 -13 -10 -10 0 -40 -3 -66 -5 l-48 -5 18 21 c10 12 27 26 38 30 15 7 16 9 4
9 -9 1 -26 -8 -39 -19 -13 -11 -27 -20 -32 -20 -4 0 -8 -7 -8 -15 0 -8 -7 -15
-15 -15 -12 0 -14 7 -9 28 4 15 10 29 14 32 3 3 10 13 13 24 5 12 13 16 23 12
14 -5 15 -4 4 9 -11 13 -10 18 9 31 12 9 19 20 16 25 -4 5 3 9 14 9 12 0 21 7
21 15 0 8 7 15 15 15 8 0 15 -5 15 -11 0 -6 6 -9 13 -6 6 2 11 12 9 21 -2 11
8 21 30 30 18 8 36 18 40 22 12 11 -2 26 -15 16 -13 -10 -47 -23 -47 -18 0 8
104 69 132 77 63 19 232 55 268 58 13 1 13 0 0 -9z m525 -60 c4 -6 -7 -10 -25
-10 -18 0 -29 4 -25 10 3 6 15 10 25 10 10 0 22 -4 25 -10z m-595 -20 c0 -5
-7 -10 -16 -10 -8 0 -12 5 -9 10 3 6 10 10 16 10 5 0 9 -4 9 -10z m-1277 -130
c6 -22 0 -25 -22 -11 -7 5 -10 14 -7 20 11 17 23 13 29 -9z m-53 -67 c0 -10
-6 -8 -21 6 -13 11 -18 24 -14 32 6 9 12 7 22 -6 7 -11 13 -25 13 -32z m2485
10 c-9 -52 -16 -59 -32 -38 -25 35 -10 66 36 74 2 1 0 -16 -4 -36z m-1922
-138 c-3 -9 -8 -14 -10 -11 -3 3 -2 9 2 15 9 16 15 13 8 -4z m307 11 c0 -2 -3
-11 -6 -20 -9 -23 -30 -20 -30 4 0 13 7 20 18 20 10 0 18 -2 18 -4z m-65 -26
c3 -5 1 -10 -4 -10 -6 0 -11 5 -11 10 0 6 2 10 4 10 3 0 8 -4 11 -10z m-258
-26 c-3 -3 -12 -4 -19 -1 -8 3 -5 6 6 6 11 1 17 -2 13 -5z m1793 -109 c0 -3
-22 -36 -49 -73 -120 -165 -361 -355 -585 -462 -84 -40 -387 -125 -417 -117
-10 3 -45 -1 -78 -8 -50 -10 -71 -10 -118 1 -32 8 -92 14 -133 14 -96 1 -210
18 -365 55 -95 23 -105 27 -82 32 24 6 48 20 137 77 68 45 172 95 335 163 97
40 475 162 610 197 33 9 85 23 115 31 30 8 73 15 95 15 22 1 58 5 80 9 261 56
455 84 455 66z m-1800 -20 c0 -8 -7 -15 -15 -15 -16 0 -20 12 -8 23 11 12 23
8 23 -8z m-34 -64 c-1 -16 -5 -29 -11 -28 -5 1 -14 -12 -20 -28 -13 -40 -43
-81 -51 -72 -4 4 -2 17 4 30 6 12 14 33 18 47 8 29 42 80 53 80 5 0 8 -13 7
-29z m-531 -141 c3 -5 -1 -10 -9 -10 -9 0 -16 5 -16 10 0 6 4 10 9 10 6 0 13
-4 16 -10z m127 -93 c7 -2 10 -8 6 -12 -11 -11 -55 10 -89 43 -45 42 -34 46
21 8 27 -19 55 -36 62 -39z m439 -7 c5 0 9 -4 9 -10 0 -5 -7 -10 -15 -10 -8 0
-15 5 -15 11 0 6 -6 9 -14 6 -19 -8 -28 3 -15 19 9 11 14 11 26 -1 8 -8 19
-15 24 -15z m-116 -29 c-12 -20 24 -45 59 -43 30 2 36 -1 36 -18 0 -11 5 -20
10 -20 6 0 10 5 10 10 0 13 47 13 55 0 8 -13 -87 -81 -108 -76 -10 3 -14 0
-10 -7 4 -7 0 -8 -12 -3 -11 4 -22 2 -27 -6 -5 -9 -8 -4 -8 13 0 15 -7 29 -15
33 -11 4 -15 21 -15 64 0 32 3 62 6 65 9 9 26 -2 19 -12z m179 -12 c-6 -11
-24 -2 -24 11 0 5 7 7 15 4 8 -4 12 -10 9 -15z m-407 -24 c16 -8 38 -24 49
-36 l19 -21 -30 14 c-27 12 -85 58 -73 58 3 0 18 -7 35 -15z m128 -54 c3 -5 0
-13 -5 -16 -7 -5 -5 -12 7 -21 16 -13 14 -13 -12 -2 -40 16 -57 33 -27 25 18
-4 22 -2 18 9 -6 15 9 20 19 5z m90 -129 c-3 -3 -11 0 -18 7 -9 10 -8 11 6 5
10 -3 15 -9 12 -12z"/>
<path d="M5010 3110 c-12 -8 -9 -10 13 -10 15 0 27 5 27 10 0 13 -20 13 -40 0z"/>
<path d="M4915 2910 c-4 -12 -5 -24 -2 -27 3 -2 8 5 12 17 4 12 5 24 2 27 -3
2 -8 -5 -12 -17z"/>
<path d="M4925 2580 c-19 -8 -19 -9 3 -9 12 -1 22 4 22 9 0 6 -1 10 -2 9 -2 0
-12 -4 -23 -9z"/>
<path d="M3632 1620 c7 -10 14 -18 15 -16 6 6 -9 36 -18 36 -5 0 -4 -9 3 -20z"/>
<path d="M3600 1540 c-13 -8 -12 -10 3 -10 9 0 17 5 17 10 0 12 -1 12 -20 0z"/>
<path d="M3318 1513 c7 -3 16 -2 19 1 4 3 -2 6 -13 5 -11 0 -14 -3 -6 -6z"/>
<path d="M3555 1498 c-16 -6 -33 -15 -36 -20 -3 -5 -9 -2 -12 6 -6 14 -10 14
-27 4 -24 -15 -26 -28 -5 -28 8 0 15 -4 15 -10 0 -16 16 -12 64 18 63 37 63
52 1 30z"/>
<path d="M3395 1440 c-3 -5 -4 -14 -1 -19 8 -12 46 -21 46 -10 0 5 -5 9 -11 9
-6 0 -9 7 -5 15 6 17 -19 21 -29 5z"/>
<path d="M3210 1260 c-8 -5 -12 -11 -9 -14 3 -3 14 1 25 9 21 16 8 20 -16 5z"/>
<path d="M3674 2091 c4 -6 4 -11 -1 -11 -4 0 -16 -12 -27 -26 l-18 -26 32 17
c19 10 47 15 66 13 19 -2 34 -2 34 2 -1 16 -19 29 -54 35 -28 6 -37 5 -32 -4z"/>
<path d="M5272 3175 c0 -16 2 -22 5 -12 2 9 2 23 0 30 -3 6 -5 -1 -5 -18z"/>
<path d="M3485 3041 c3 -6 13 -10 23 -10 9 1 28 -2 42 -5 21 -5 20 -4 -5 8
-34 17 -69 21 -60 7z"/>
<path d="M1922 2210 c0 -19 2 -27 5 -17 2 9 2 25 0 35 -3 9 -5 1 -5 -18z"/>
<path d="M5066 1745 c-3 -8 -1 -15 4 -15 6 0 10 7 10 15 0 8 -2 15 -4 15 -2 0
-6 -7 -10 -15z"/>
<path d="M1181 1714 c0 -11 3 -14 6 -6 3 7 2 16 -1 19 -3 4 -6 -2 -5 -13z"/>
<path d="M2470 865 c0 -7 61 -37 66 -33 2 3 -12 12 -31 21 -19 9 -35 15 -35
12z"/>
<path d="M2606 795 c-3 -8 -1 -15 4 -15 6 0 10 7 10 15 0 8 -2 15 -4 15 -2 0
-6 -7 -10 -15z"/>
<path d="M3275 560 c4 -6 11 -8 16 -5 14 9 11 15 -7 15 -8 0 -12 -5 -9 -10z"/>
<path d="M3260 530 c-13 -8 -12 -10 3 -10 9 0 17 5 17 10 0 12 -1 12 -20 0z"/>
<path d="M3215 6090 c-3 -5 1 -10 10 -10 9 0 13 5 10 10 -3 6 -8 10 -10 10 -2
0 -7 -4 -10 -10z"/>
<path d="M2772 5956 c-36 -21 -38 -27 -4 -15 18 6 32 15 32 20 0 5 -1 9 -2 8
-2 -1 -13 -7 -26 -13z"/>
<path d="M1475 5315 c-224 -142 -432 -329 -516 -463 -24 -40 -62 -71 -179
-148 -58 -38 -107 -71 -110 -74 -9 -9 -45 -30 -69 -40 -13 -6 -21 -13 -18 -16
8 -8 144 44 162 62 7 8 17 14 20 14 4 0 27 14 52 30 24 17 48 30 53 30 18 0
91 73 145 145 76 99 259 285 281 285 4 0 35 27 71 60 35 34 83 73 106 88 23
15 45 31 48 35 3 5 24 15 45 22 38 14 38 14 9 14 -19 0 -57 -16 -100 -44z"/>
<path d="M5490 5060 c-12 -8 -10 -10 10 -11 14 -1 40 -2 58 -4 22 -2 32 2 32
11 0 17 -76 19 -100 4z"/>
<path d="M5568 4953 c6 -2 18 -2 25 0 6 3 1 5 -13 5 -14 0 -19 -2 -12 -5z"/>
<path d="M530 4550 c-8 -5 -10 -10 -5 -10 6 0 17 5 25 10 8 5 11 10 5 10 -5 0
-17 -5 -25 -10z"/>
<path d="M770 4500 c0 -5 5 -10 10 -10 6 0 10 5 10 10 0 6 -4 10 -10 10 -5 0
-10 -4 -10 -10z"/>
<path d="M310 4099 c0 -5 5 -7 10 -4 6 3 10 8 10 11 0 2 -4 4 -10 4 -5 0 -10
-5 -10 -11z"/>
<path d="M158 3693 c7 -3 16 -2 19 1 4 3 -2 6 -13 5 -11 0 -14 -3 -6 -6z"/>
<path d="M6281 3534 c0 -11 3 -14 6 -6 3 7 2 16 -1 19 -3 4 -6 -2 -5 -13z"/>
<path d="M6261 3403 c-22 -65 -27 -74 -45 -69 -12 3 -24 6 -27 6 -4 0 -10 11
-13 25 -8 30 -28 23 -24 -8 4 -32 -8 -45 -38 -39 -24 4 -26 3 -20 -24 15 -78
7 -159 -18 -177 -6 -5 -1 -5 12 -2 16 5 22 2 22 -9 0 -9 5 -16 10 -16 6 0 10
7 10 15 0 21 13 19 29 -4 13 -18 16 -18 37 -4 13 8 20 21 17 29 -3 8 1 14 11
14 16 0 21 9 43 75 6 17 14 38 18 48 5 12 2 17 -9 17 -9 0 -16 4 -16 10 0 5 6
7 14 4 8 -3 17 -1 21 5 3 6 -2 11 -12 11 -18 0 -18 5 -9 65 5 36 13 65 18 65
10 0 11 27 1 33 -5 3 -19 -29 -32 -70z"/>
<path d="M6096 3053 c-6 -14 -5 -15 5 -6 7 7 10 15 7 18 -3 3 -9 -2 -12 -12z"/>
<path d="M6130 2553 c0 -5 5 -15 10 -23 8 -12 10 -11 10 8 0 12 -4 22 -10 22
-5 0 -10 -3 -10 -7z"/>
<path d="M5920 2509 c0 -5 5 -7 10 -4 6 3 10 8 10 11 0 2 -4 4 -10 4 -5 0 -10
-5 -10 -11z"/>
<path d="M6114 2487 c-12 -14 -3 -50 15 -62 7 -4 11 8 11 34 0 42 -7 49 -26
28z"/>
<path d="M5810 2341 c0 -5 9 -11 20 -14 24 -6 27 8 4 17 -21 8 -24 8 -24 -3z"/>
<path d="M6040 2261 c0 -21 24 -61 36 -61 25 0 22 17 -7 44 -16 15 -29 23 -29
17z"/>
<path d="M5811 2224 c0 -11 3 -14 6 -6 3 7 2 16 -1 19 -3 4 -6 -2 -5 -13z"/>
<path d="M5630 1999 c0 -5 5 -7 10 -4 6 3 10 8 10 11 0 2 -4 4 -10 4 -5 0 -10
-5 -10 -11z"/>
<path d="M5760 1800 c0 -33 3 -40 20 -40 15 0 20 7 20 25 0 14 -4 25 -10 25
-5 0 -10 7 -10 15 0 8 -4 15 -10 15 -5 0 -10 -18 -10 -40z"/>
<path d="M936 1660 c13 -21 20 -26 26 -17 5 8 8 6 8 -7 0 -12 5 -16 15 -12 8
3 15 2 15 -2 0 -5 20 -21 45 -36 25 -16 45 -35 45 -42 0 -7 5 -25 12 -39 8
-19 14 -22 20 -13 5 8 6 3 3 -13 -5 -21 3 -35 52 -85 32 -33 79 -70 104 -81
76 -36 178 -65 208 -61 15 2 32 -1 38 -8 16 -16 67 -6 53 11 -5 6 -7 14 -5 17
3 3 -36 13 -87 22 -163 30 -338 127 -338 187 0 10 -7 25 -16 33 -27 28 10 19
63 -14 51 -32 74 -39 49 -15 -8 8 -19 15 -24 15 -6 0 -12 3 -14 8 -4 9 -94 72
-103 72 -3 0 -31 18 -61 41 -31 23 -62 42 -70 43 -8 1 -20 8 -26 14 -22 22
-29 12 -12 -18z"/>
<path d="M5450 1679 c0 -5 5 -7 10 -4 6 3 10 8 10 11 0 2 -4 4 -10 4 -5 0 -10
-5 -10 -11z"/>
<path d="M5426 1665 c4 -8 8 -15 10 -15 2 0 4 7 4 15 0 8 -4 15 -10 15 -5 0
-7 -7 -4 -15z"/>
<path d="M810 1575 c0 -18 27 -55 49 -66 30 -16 134 -119 127 -127 -3 -3 -12
1 -21 8 -12 10 -16 8 -24 -11 -6 -17 -5 -25 4 -29 7 -3 34 -31 59 -62 26 -32
50 -58 54 -58 4 0 23 -15 42 -33 54 -50 105 -85 133 -92 13 -4 35 -18 47 -32
12 -13 55 -40 96 -59 41 -18 74 -39 74 -45 0 -7 10 -9 25 -7 13 3 22 1 19 -4
-9 -15 15 -36 49 -44 18 -3 37 -11 44 -16 7 -6 14 -5 18 2 6 10 -33 59 -48 60
-21 0 -87 55 -87 71 0 23 13 24 34 4 8 -8 35 -24 59 -34 52 -22 143 -86 150
-105 6 -15 125 -76 149 -76 9 0 19 -4 22 -9 3 -5 18 -12 33 -16 16 -3 42 -17
60 -31 18 -13 45 -24 63 -24 17 0 38 -7 46 -15 9 -8 23 -15 32 -15 13 0 11 4
-6 16 -13 9 -21 22 -18 30 3 9 0 14 -7 12 -6 -1 -41 11 -77 28 -36 17 -80 37
-98 44 -19 7 -38 24 -43 38 -7 19 -12 22 -23 13 -12 -10 -13 -8 -9 8 3 12 12
21 19 21 22 0 17 16 -11 34 -15 10 -22 22 -19 31 4 9 0 15 -8 15 -9 0 -36 20
-62 46 -28 27 -58 46 -75 49 -35 4 -71 22 -71 35 0 6 -11 10 -25 10 -35 0 -31
-13 15 -50 22 -17 40 -35 40 -39 0 -4 -16 -8 -37 -8 -24 -1 -32 2 -22 8 13 8
6 13 -14 10 -4 -1 -20 10 -35 24 -15 14 -34 23 -43 20 -10 -3 -20 -2 -23 3 -3
6 -17 13 -31 16 -36 9 -145 84 -145 100 0 2 6 6 13 9 6 2 4 3 -5 2 -9 -2 -25
3 -35 11 -10 7 -23 14 -30 14 -11 0 -147 93 -187 128 -18 16 -18 16 -7 -5 6
-13 17 -23 24 -23 8 0 7 -4 -3 -9 -16 -11 -33 -4 -25 9 3 4 -2 11 -11 14 -10
4 -14 12 -10 22 7 18 4 22 -94 102 -41 34 -80 66 -87 72 -13 11 -23 13 -23 5z
m411 -330 c16 -9 27 -20 24 -25 -3 -5 4 -11 14 -15 11 -3 35 -20 53 -37 26
-25 29 -29 11 -24 -12 4 -24 2 -28 -4 -11 -18 -135 85 -135 113 0 12 29 8 61
-8z m-24 -61 c37 -36 57 -60 44 -54 -43 22 -139 120 -116 120 2 0 35 -30 72
-66z m244 -94 c18 -10 27 -40 12 -40 -10 0 -43 32 -43 42 0 11 7 10 31 -2z
m76 -6 c-3 -3 -12 -4 -19 -1 -8 3 -5 6 6 6 11 1 17 -2 13 -5z"/>
<path d="M1270 1462 c0 -5 11 -14 25 -20 14 -6 25 -10 25 -8 0 2 -11 11 -25
20 -14 9 -25 13 -25 8z"/>
<path d="M750 1383 c0 -19 41 -73 56 -73 9 0 32 -13 50 -30 38 -33 94 -65 94
-53 -1 7 -31 33 -133 115 -12 10 -26 21 -32 26 -21 17 -35 23 -35 15z"/>
<path d="M880 1381 c0 -5 7 -11 15 -15 8 -3 15 -1 15 3 0 5 -7 11 -15 15 -8 3
-15 1 -15 -3z"/>
<path d="M1387 1379 c7 -7 15 -10 18 -7 3 3 -2 9 -12 12 -14 6 -15 5 -6 -5z"/>
<path d="M889 1188 c4 -13 11 -42 15 -66 6 -42 6 -43 -16 -37 -13 4 -30 14
-39 21 -22 20 -29 17 -29 -10 0 -26 82 -108 161 -161 24 -16 67 -51 94 -76 72
-68 111 -99 123 -99 6 0 15 -6 19 -13 4 -8 44 -37 88 -66 44 -28 97 -66 117
-84 66 -55 379 -208 509 -248 96 -29 226 -51 334 -55 151 -5 179 -12 183 -45
3 -24 7 -26 119 -38 64 -7 126 -19 137 -26 23 -14 154 -28 261 -28 39 0 54 -1
35 -4 -59 -7 -68 -12 -46 -28 11 -8 15 -19 10 -26 -5 -9 -2 -10 12 -5 40 17
120 36 150 36 17 0 50 6 75 14 24 8 66 20 92 27 26 8 61 26 76 41 16 15 39 32
52 37 38 15 -52 7 -144 -13 -42 -9 -82 -14 -87 -11 -5 3 -18 0 -28 -6 -14 -9
-30 -9 -58 -2 -22 5 -77 10 -124 12 -47 1 -98 6 -115 11 -16 4 -58 11 -93 14
-35 3 -71 10 -81 15 -32 18 -253 51 -340 52 -99 1 -141 7 -141 20 0 5 10 9 23
10 18 1 16 3 -8 9 -16 5 -57 20 -91 34 -33 14 -94 30 -135 37 -40 6 -100 22
-133 35 -65 26 -234 122 -339 192 -70 46 -87 62 -66 62 25 0 -16 32 -119 93
-61 36 -120 81 -144 107 -21 25 -47 54 -57 65 -10 11 -35 43 -54 70 -30 43
-127 140 -127 128 0 -2 -10 3 -22 11 -12 9 -30 16 -40 16 -14 0 -16 -5 -9 -22z
m2436 -968 c-3 -5 -16 -10 -28 -10 -18 0 -19 2 -7 10 20 13 43 13 35 0z"/>
<path d="M1650 1201 c0 -13 160 -141 176 -141 8 0 14 -4 14 -9 0 -13 96 -61
122 -61 13 0 32 -7 42 -15 25 -19 37 -19 30 0 -7 18 6 19 40 4 19 -9 29 -8 47
5 l23 16 -27 0 c-15 0 -50 9 -79 20 -61 23 -61 23 -53 10 3 -5 2 -10 -4 -10
-6 0 -15 9 -21 20 -6 11 -14 20 -19 20 -4 0 -45 25 -91 55 -46 30 -89 55 -97
55 -7 0 -27 9 -45 20 -35 21 -58 26 -58 11z"/>
<path d="M5096 1161 c-14 -16 -15 -23 -6 -38 10 -16 11 -16 6 0 -3 11 2 22 14
29 11 7 20 16 20 20 0 14 -17 8 -34 -11z"/>
<path d="M1040 1156 c0 -2 7 -9 15 -16 9 -7 15 -8 15 -2 0 5 -7 12 -15 16 -8
3 -15 4 -15 2z"/>
<path d="M1086 1117 c3 -10 9 -15 12 -12 3 3 0 11 -7 18 -10 9 -11 8 -5 -6z"/>
<path d="M1110 1092 c0 -10 54 -42 71 -42 8 0 -3 11 -23 25 -39 27 -48 30 -48
17z"/>
<path d="M5148 1043 c7 -3 16 -2 19 1 4 3 -2 6 -13 5 -11 0 -14 -3 -6 -6z"/>
<path d="M1216 1013 c-9 -10 -7 -43 3 -43 5 0 11 7 15 15 4 12 11 13 32 5 15
-6 29 -8 32 -6 3 3 -4 8 -14 12 -10 3 -29 9 -41 14 -11 5 -24 6 -27 3z"/>
<path d="M1182 996 c7 -8 15 -12 17 -11 5 6 -10 25 -20 25 -5 0 -4 -6 3 -14z"/>
<path d="M1340 1000 c0 -5 5 -10 10 -10 6 0 10 5 10 10 0 6 -4 10 -10 10 -5 0
-10 -4 -10 -10z"/>
<path d="M1270 951 c0 -7 15 -30 47 -71 2 -2 8 2 12 9 11 17 34 4 27 -14 -3
-9 17 -19 66 -31 39 -10 77 -24 84 -31 7 -7 24 -13 38 -13 13 0 32 -8 42 -17
10 -10 18 -17 18 -15 2 9 45 -15 69 -40 16 -15 35 -28 42 -28 7 0 27 -11 43
-25 17 -14 39 -25 50 -25 10 0 41 -8 68 -19 96 -37 215 -54 228 -33 3 5 -17
15 -44 22 -28 8 -50 19 -50 27 0 7 5 13 10 13 6 0 10 11 10 25 0 14 -6 25 -13
25 -7 0 -23 9 -35 20 -12 11 -27 20 -34 20 -8 0 -24 7 -36 16 -32 22 -39 11
-8 -14 14 -10 22 -23 18 -27 -4 -5 0 -6 9 -3 20 8 19 -30 -2 -43 -11 -7 -11
-9 4 -9 9 0 17 5 17 10 0 6 9 10 20 10 25 0 27 -27 3 -32 -23 -5 -125 29 -138
45 -5 8 -44 33 -85 56 -41 23 -86 49 -100 57 -78 46 -174 84 -210 84 -22 0
-48 4 -58 9 -59 30 -112 50 -112 42z"/>
<path d="M2044 809 c-15 -6 -16 -8 -3 -8 9 -1 31 -4 48 -7 18 -4 31 -2 31 4 0
13 -52 20 -76 11z"/>
<path d="M2164 715 c8 -8 21 -15 28 -15 8 1 6 6 -6 15 -26 20 -42 19 -22 0z"/>
<path d="M2210 600 c0 -5 5 -10 11 -10 5 0 7 5 4 10 -3 6 -8 10 -11 10 -2 0
-4 -4 -4 -10z"/>
<path d="M3095 279 c4 -5 -8 -9 -24 -9 -17 0 -31 -4 -31 -10 0 -5 7 -7 15 -4
8 4 15 1 15 -5 0 -6 5 -11 11 -11 5 0 7 5 4 10 -3 6 3 10 13 10 26 0 36 25 11
27 -11 1 -17 -2 -14 -8z"/>
<path d="M3357 279 c7 -7 15 -10 18 -7 3 3 -2 9 -12 12 -14 6 -15 5 -6 -5z"/>
<path d="M2930 260 c20 -13 43 -13 35 0 -3 6 -16 10 -28 10 -18 0 -19 -2 -7
-10z"/>
<path d="M4240 262 c0 -7 -7 -12 -17 -12 -9 0 -13 -3 -10 -7 4 -3 2 -12 -4
-20 -9 -10 -8 -13 3 -13 22 0 52 40 39 53 -8 8 -11 8 -11 -1z"/>
<path d="M4247 224 c-4 -4 -7 -14 -7 -23 0 -11 3 -12 11 -4 6 6 10 16 7 23 -2
6 -7 8 -11 4z"/>
</g>
</svg>
