<?xml version="1.0" standalone="no"?>
<!DOCTYPE svg PUBLIC "-//W3C//DTD SVG 20010904//EN"
 "http://www.w3.org/TR/2001/REC-SVG-20010904/DTD/svg10.dtd">
<svg version="1.0" xmlns="http://www.w3.org/2000/svg"
 width="256.000000pt" height="256.000000pt" viewBox="0 0 256.000000 256.000000"
 preserveAspectRatio="xMidYMid meet">

<g transform="translate(0.000000,256.000000) scale(0.100000,-0.100000)"
fill="#000000" stroke="none">
<path d="M219 2540 c-39 -20 -64 -52 -75 -94 -3 -14 -11 -26 -16 -26 -54 0
-128 -86 -128 -149 0 -99 103 -159 197 -114 l35 16 89 -89 c49 -49 89 -92 89
-95 0 -4 -18 -36 -39 -71 -52 -86 -97 -193 -117 -281 l-17 -74 -56 -29 c-31
-16 -62 -41 -71 -56 -13 -25 -13 -31 0 -55 9 -16 36 -39 61 -52 l46 -25 7 -77
c16 -195 106 -417 228 -565 21 -25 38 -49 38 -53 0 -3 -58 -64 -129 -135
l-129 -129 -35 16 c-94 45 -197 -15 -197 -114 0 -63 74 -149 128 -149 5 0 13
-12 16 -26 24 -96 141 -143 222 -89 51 33 68 117 35 171 l-19 31 137 137 138
138 89 -51 c49 -27 100 -56 114 -64 16 -9 30 -29 38 -58 7 -24 33 -71 57 -103
94 -126 250 -193 391 -167 158 29 283 141 337 303 3 10 34 32 69 49 35 17 83
45 107 62 l43 30 136 -136 135 -135 -16 -35 c-45 -94 15 -197 114 -197 63 0
149 74 149 128 0 5 12 13 26 16 61 16 114 81 114 141 0 102 -111 168 -196 116
l-31 -19 -132 132 -132 132 56 69 c114 143 204 371 221 560 6 66 10 78 29 85
43 16 85 61 85 90 0 31 -40 71 -94 94 -28 12 -34 21 -45 72 -20 88 -65 199
-120 294 l-49 85 90 92 91 91 31 -19 c85 -52 196 13 196 116 0 60 -53 125
-114 141 -14 3 -26 11 -26 16 0 54 -86 128 -149 128 -99 0 -159 -103 -114
-197 l16 -35 -85 -85 -85 -85 -61 48 c-186 150 -401 224 -653 224 -247 0 -458
-67 -636 -203 -31 -23 -64 -48 -75 -56 -18 -13 -26 -8 -108 74 l-88 87 20 35
c37 62 9 151 -57 179 -46 19 -83 17 -126 -6z m131 -37 c44 -40 49 -87 15 -137
l-27 -39 188 -188 187 -187 -44 -56 c-24 -31 -46 -56 -49 -56 -3 0 -88 83
-190 185 -102 102 -192 185 -201 185 -9 0 -22 -7 -29 -15 -18 -22 -76 -29
-111 -15 -62 26 -76 121 -25 169 13 13 41 29 62 36 31 10 40 19 45 45 18 87
118 127 179 73z m1997 -6 c13 -13 30 -41 38 -63 11 -32 19 -40 45 -45 47 -10
90 -57 97 -106 4 -34 1 -45 -23 -72 -41 -45 -87 -51 -138 -16 l-39 27 -188
-188 -187 -187 -51 54 -50 54 180 180 c98 99 179 187 179 196 0 9 -7 22 -15
29 -21 18 -29 76 -15 111 26 61 117 76 167 26z m-812 -132 c120 -30 274 -104
368 -175 l69 -52 -24 -25 c-31 -34 -81 -84 -105 -106 -19 -17 -21 -16 -65 17
-73 56 -166 103 -263 132 -78 24 -108 28 -225 28 -112 1 -148 -3 -213 -22 -96
-28 -204 -81 -280 -138 l-57 -44 -75 74 -75 74 36 32 c126 110 328 199 520
230 99 15 276 4 389 -25z m-35 -245 c147 -42 273 -123 373 -240 43 -49 116
-164 117 -182 0 -4 -19 0 -42 8 -148 52 -549 83 -850 66 -197 -12 -416 -43
-477 -68 -18 -8 -35 -14 -37 -14 -10 0 48 100 90 157 76 104 221 211 346 257
139 51 335 58 480 16z m668 -227 c47 -80 100 -210 112 -271 7 -42 7 -43 -14
-37 -11 3 -64 15 -116 26 -52 11 -95 21 -96 22 0 1 -9 25 -19 52 -10 28 -28
67 -40 88 l-22 38 74 75 c40 41 75 74 78 74 2 0 22 -30 43 -67z m-1648 -18
l74 -74 -26 -48 c-14 -26 -31 -65 -37 -85 -11 -32 -17 -38 -49 -43 -20 -3 -73
-14 -117 -24 -44 -10 -82 -17 -84 -15 -5 5 38 141 65 203 28 62 85 161 94 161
3 0 39 -34 80 -75z m1105 -245 c391 -25 689 -83 779 -152 26 -20 14 -50 -32
-75 -34 -20 -173 -63 -249 -78 l-33 -7 0 64 c0 84 -14 102 -98 127 -145 43
-358 62 -705 62 -365 0 -602 -23 -733 -72 -30 -11 -59 -29 -64 -39 -6 -10 -10
-46 -10 -79 0 -34 -4 -61 -9 -61 -21 0 -218 54 -255 70 -56 24 -83 55 -66 75
59 71 365 137 762 164 180 12 530 12 713 1z m115 -110 c128 -15 268 -46 298
-66 25 -16 25 -18 19 -118 -19 -316 -203 -576 -488 -689 -100 -40 -163 -51
-284 -51 -136 1 -220 20 -340 79 -237 116 -387 330 -425 604 -6 45 -8 102 -4
128 6 39 11 47 41 59 45 19 242 52 378 63 142 12 682 6 805 -9z m560 -271
c-11 -74 -20 -101 -20 -60 0 22 -3 22 -90 19 -50 -2 -90 0 -90 3 0 4 -3 20 -6
36 -6 30 -5 31 48 38 29 3 78 15 108 24 30 10 57 16 58 15 2 -1 -1 -35 -8 -75z
m-1955 51 c43 -11 92 -20 108 -20 28 0 29 -2 23 -30 -3 -19 -2 -29 4 -25 6 3
10 -2 10 -11 0 -12 -3 -14 -9 -8 -6 5 -52 7 -107 4 -60 -3 -98 -1 -100 5 -6
21 -15 105 -11 105 2 0 39 -9 82 -20z m465 -587 c2 -2 -103 -111 -234 -242
l-238 -238 27 -39 c35 -51 29 -97 -16 -138 -27 -24 -38 -27 -72 -23 -49 7 -96
50 -106 97 -5 26 -13 34 -45 45 -21 7 -49 23 -62 36 -51 48 -37 143 25 169 35
14 93 7 111 -15 7 -8 20 -15 29 -15 9 0 119 103 246 230 l229 229 50 -46 c28
-26 53 -48 56 -50z m1286 -144 l231 -231 39 27 c51 35 97 29 138 -16 24 -27
27 -38 23 -72 -7 -49 -50 -96 -97 -106 -26 -5 -34 -13 -45 -45 -7 -21 -23 -49
-36 -62 -48 -51 -143 -37 -169 25 -14 35 -7 93 15 111 8 7 15 20 15 29 0 9
-103 119 -230 246 l-229 229 52 48 c29 26 54 47 57 48 3 0 109 -104 236 -231z
m-1028 21 c15 0 14 -24 -1 -68 l-12 -33 -47 30 c-47 30 -84 82 -74 106 4 10
17 8 63 -11 32 -13 64 -24 71 -24z m557 -4 c-15 -31 -93 -96 -116 -96 -11 0
-32 68 -26 84 3 6 25 18 48 25 24 7 55 19 69 26 35 19 45 3 25 -39z m-365 -84
l0 -55 -57 6 c-32 4 -72 11 -90 17 l-32 11 14 40 c8 22 17 43 19 47 3 5 36 3
75 -2 l71 -10 0 -54z m-236 -23 c24 -11 24 -12 9 -55 -8 -24 -19 -44 -23 -44
-11 0 -57 55 -75 89 -7 15 -17 45 -21 66 l-7 40 47 -43 c25 -23 57 -47 70 -53z
m434 52 c7 -21 12 -43 12 -48 0 -12 -88 -33 -136 -33 l-34 0 0 54 0 55 48 4
c106 8 98 10 110 -32z m176 -57 c-9 -20 -33 -52 -52 -72 l-35 -37 -12 30 c-28
69 -28 70 19 92 23 12 54 34 67 50 l24 30 3 -28 c2 -16 -5 -45 -14 -65z m-434
-43 l55 -6 3 -67 c3 -65 2 -68 -20 -68 -30 0 -92 17 -149 42 l-47 19 16 50
c16 50 16 50 52 43 19 -3 60 -9 90 -13z m291 -8 c28 -74 26 -79 -37 -103 -32
-12 -80 -24 -106 -27 l-48 -6 0 66 c0 75 -10 67 105 85 33 5 63 10 68 11 4 0
12 -11 18 -26z m-455 -99 c72 -42 156 -64 249 -64 140 0 255 47 335 137 l43
48 -7 -40 c-21 -113 -114 -232 -224 -283 -49 -23 -70 -27 -147 -27 -78 0 -98
4 -152 29 -107 49 -203 173 -220 283 l-6 38 43 -48 c23 -26 62 -59 86 -73z"/>
<path d="M883 1429 c-55 -10 -95 -32 -136 -73 -48 -48 -70 -101 -75 -179 -4
-58 0 -75 22 -122 103 -210 390 -204 487 10 22 47 24 143 5 197 -42 117 -177
192 -303 167z"/>
<path d="M1581 1429 c-126 -24 -213 -132 -213 -264 0 -99 47 -178 141 -233 39
-23 57 -27 121 -27 87 0 134 19 190 75 56 56 75 103 75 190 0 89 -21 136 -85
194 -67 60 -142 82 -229 65z"/>
<path d="M1221 924 c-26 -21 -31 -33 -31 -69 0 -36 5 -48 32 -70 90 -76 202
53 119 136 -37 37 -79 38 -120 3z"/>
<path d="M2153 1223 c26 -2 67 -2 90 0 23 2 2 3 -48 3 -49 0 -68 -1 -42 -3z"/>
<path d="M333 1223 c26 -2 67 -2 90 0 23 2 2 3 -48 3 -49 0 -68 -1 -42 -3z"/>
</g>
</svg>
